<svg width="15" height="16" viewBox="0 0 15 16" fill="none" xmlns="http://www.w3.org/2000/svg">
<path d="M14.699 3.5448L11.3885 0.234303C11.3144 0.159785 11.2263 0.100706 11.1292 0.0604885C11.0321 0.0202706 10.928 -0.000287994 10.8229 3.04741e-06H0.8C0.587902 0.000250062 0.384563 0.0846149 0.234587 0.23459C0.0846117 0.384566 0.000247015 0.587906 0 0.800003V15.2C0.000247015 15.4121 0.0846117 15.6154 0.234587 15.7654C0.384563 15.9154 0.587902 15.9998 0.8 16H14.1333C14.3454 15.9998 14.5488 15.9154 14.6987 15.7654C14.8487 15.6154 14.9331 15.4121 14.9333 15.2V4.11044C14.9336 4.00534 14.9131 3.90124 14.8728 3.80415C14.8326 3.70706 14.7735 3.61891 14.699 3.5448V3.5448ZM9.6 1.06667V4.26667H4.8V1.06667H9.6ZM13.8667 14.9333H1.06667V1.06667H3.73333V5.33334H10.6667V1.06667H10.7124L13.8667 4.2209V14.9333Z" fill="black"/>
<path d="M7.33327 6.93335C6.72674 6.93335 6.13383 7.11321 5.62952 7.45018C5.12521 7.78715 4.73215 8.26609 4.50004 8.82645C4.26793 9.38681 4.2072 10.0034 4.32553 10.5983C4.44386 11.1932 4.73593 11.7396 5.16481 12.1685C5.59369 12.5974 6.14012 12.8894 6.73499 13.0078C7.32987 13.1261 7.94647 13.0654 8.50683 12.8332C9.06719 12.6011 9.54614 12.2081 9.88311 11.7038C10.2201 11.1995 10.3999 10.6065 10.3999 10C10.3991 9.18696 10.0757 8.40745 9.50075 7.83253C8.92583 7.25761 8.14633 6.93423 7.33327 6.93335V6.93335ZM7.33327 12C6.93771 12 6.55103 11.8827 6.22213 11.663C5.89323 11.4432 5.63689 11.1308 5.48551 10.7654C5.33413 10.3999 5.29453 9.9978 5.3717 9.60984C5.44887 9.22187 5.63935 8.86551 5.91906 8.5858C6.19876 8.3061 6.55513 8.11562 6.94309 8.03845C7.33105 7.96128 7.73318 8.00088 8.09864 8.15226C8.46409 8.30363 8.77644 8.55998 8.99621 8.88887C9.21597 9.21777 9.33327 9.60445 9.33327 10C9.33267 10.5303 9.12176 11.0386 8.74682 11.4136C8.37188 11.7885 7.86352 11.9994 7.33327 12V12Z" fill="black"/>
</svg>
