<svg width="16" height="20" viewBox="0 0 16 20" fill="none" xmlns="http://www.w3.org/2000/svg">
<path d="M15.1583 18.3334C15.1583 15.1084 11.95 12.5001 8.00001 12.5001C4.05001 12.5001 0.841675 15.1084 0.841675 18.3334M8.00001 10.0001C9.10508 10.0001 10.1649 9.56109 10.9463 8.77969C11.7277 7.99829 12.1667 6.93848 12.1667 5.83341C12.1667 4.72835 11.7277 3.66854 10.9463 2.88714C10.1649 2.10573 9.10508 1.66675 8.00001 1.66675C6.89494 1.66675 5.83513 2.10573 5.05373 2.88714C4.27233 3.66854 3.83334 4.72835 3.83334 5.83341C3.83334 6.93848 4.27233 7.99829 5.05373 8.77969C5.83513 9.56109 6.89494 10.0001 8.00001 10.0001Z" stroke="black" stroke-width="1.5" stroke-linecap="round" stroke-linejoin="round"/>
</svg>
