<svg width="39" height="39" viewBox="0 0 39 39" fill="none" xmlns="http://www.w3.org/2000/svg">
<path d="M9.75 16.25V13C9.75 7.62125 11.375 3.25 19.5 3.25C26.8125 3.25 29.25 6.5 29.25 11.375M27.625 35.75H11.375C4.875 35.75 3.25 34.125 3.25 27.625V24.375C3.25 17.875 4.875 16.25 11.375 16.25H27.625C34.125 16.25 35.75 17.875 35.75 24.375V27.625C35.75 34.125 34.125 35.75 27.625 35.75Z" stroke="black" stroke-width="1.5" stroke-linecap="round" stroke-linejoin="round"/>
<path d="M19.5 30.0625C20.5774 30.0625 21.6108 29.6345 22.3726 28.8726C23.1345 28.1108 23.5625 27.0774 23.5625 26C23.5625 24.9226 23.1345 23.8892 22.3726 23.1274C21.6108 22.3655 20.5774 21.9375 19.5 21.9375C18.4226 21.9375 17.3892 22.3655 16.6274 23.1274C15.8655 23.8892 15.4375 24.9226 15.4375 26C15.4375 27.0774 15.8655 28.1108 16.6274 28.8726C17.3892 29.6345 18.4226 30.0625 19.5 30.0625Z" stroke="black" stroke-width="1.5" stroke-linecap="round" stroke-linejoin="round"/>
</svg>
