<svg width="19" height="19" viewBox="0 0 19 19" fill="none" xmlns="http://www.w3.org/2000/svg">
<g clip-path="url(#clip0_9_434)">
<path d="M11.5029 7.49705L7.49712 11.5029C6.96591 10.9717 6.66748 10.2512 6.66748 9.49997C6.66748 9.128 6.74075 8.75966 6.8831 8.416C7.02544 8.07234 7.23409 7.76008 7.49712 7.49705C7.76014 7.23403 8.0724 7.02538 8.41606 6.88303C8.75972 6.74069 9.12806 6.66742 9.50003 6.66742C10.2513 6.66742 10.9717 6.96585 11.5029 7.49705V7.49705Z" stroke="#A8A7A7" stroke-width="1.5" stroke-linecap="round" stroke-linejoin="round"/>
<path d="M14.1074 4.56794C12.722 3.52294 11.1386 2.95294 9.49988 2.95294C6.70529 2.95294 4.10071 4.59961 2.28779 7.44961C1.57529 8.56586 1.57529 10.4421 2.28779 11.5584C2.91321 12.54 3.64154 13.3871 4.43321 14.0679M6.66571 15.4613C7.56821 15.8413 8.52613 16.0471 9.49988 16.0471C12.2945 16.0471 14.899 14.4004 16.712 11.5504C17.4245 10.4342 17.4245 8.55794 16.712 7.44169C16.4507 7.03003 16.1657 6.64211 15.8728 6.27794" stroke="#A8A7A7" stroke-width="1.5" stroke-linecap="round" stroke-linejoin="round"/>
<path d="M12.2789 10.0541C12.1717 10.6064 11.9018 11.114 11.504 11.5118C11.1063 11.9096 10.5987 12.1794 10.0464 12.2866M7.49725 11.5029L1.5835 17.4166M17.4168 1.58331L11.5031 7.49706" stroke="#A8A7A7" stroke-width="1.5" stroke-linecap="round" stroke-linejoin="round"/>
</g>
<defs>
<clipPath id="clip0_9_434">
<rect width="19" height="19" fill="white"/>
</clipPath>
</defs>
</svg>
