<svg width="701" height="26" viewBox="0 0 701 26" fill="none" xmlns="http://www.w3.org/2000/svg">
<path d="M27.7585 18V9.27273H31.2017C31.8608 9.27273 32.4233 9.39062 32.8892 9.62642C33.358 9.85937 33.7145 10.1903 33.9588 10.6193C34.206 11.0455 34.3295 11.5469 34.3295 12.1236C34.3295 12.7031 34.2045 13.2017 33.9545 13.6193C33.7045 14.0341 33.3423 14.3523 32.8679 14.5739C32.3963 14.7955 31.8253 14.9062 31.1548 14.9062H28.8494V13.4233H30.8565C31.2088 13.4233 31.5014 13.375 31.7344 13.2784C31.9673 13.1818 32.1406 13.0369 32.2543 12.8438C32.3707 12.6506 32.429 12.4105 32.429 12.1236C32.429 11.8338 32.3707 11.5895 32.2543 11.3906C32.1406 11.1918 31.9659 11.0412 31.7301 10.9389C31.4972 10.8338 31.2031 10.7812 30.848 10.7812H29.6037V18H27.7585ZM32.4716 14.0284L34.6406 18H32.6037L30.4815 14.0284H32.4716ZM38.4769 18.1278C37.8036 18.1278 37.2241 17.9915 36.7383 17.7188C36.2553 17.4432 35.8832 17.054 35.6218 16.5511C35.3604 16.0455 35.2298 15.4474 35.2298 14.7571C35.2298 14.0838 35.3604 13.4929 35.6218 12.9844C35.8832 12.4759 36.2511 12.0795 36.7255 11.7955C37.2028 11.5114 37.7624 11.3693 38.4045 11.3693C38.8363 11.3693 39.2383 11.4389 39.6104 11.5781C39.9854 11.7145 40.3121 11.9205 40.5906 12.196C40.8718 12.4716 41.0906 12.8182 41.2468 13.2358C41.4031 13.6506 41.4812 14.1364 41.4812 14.6932V15.1918H35.9542V14.0668H39.7724C39.7724 13.8054 39.7156 13.5739 39.6019 13.3722C39.4883 13.1705 39.3306 13.0128 39.1289 12.8991C38.93 12.7827 38.6985 12.7244 38.4343 12.7244C38.1587 12.7244 37.9144 12.7884 37.7013 12.9162C37.4911 13.0412 37.3263 13.2102 37.207 13.4233C37.0877 13.6335 37.0266 13.8679 37.0238 14.1264V15.196C37.0238 15.5199 37.0835 15.7997 37.2028 16.0355C37.3249 16.2713 37.4968 16.4531 37.7184 16.581C37.94 16.7088 38.2028 16.7727 38.5067 16.7727C38.7085 16.7727 38.8931 16.7443 39.0607 16.6875C39.2283 16.6307 39.3718 16.5455 39.4911 16.4318C39.6104 16.3182 39.7013 16.179 39.7638 16.0142L41.4428 16.125C41.3576 16.5284 41.1829 16.8807 40.9187 17.1818C40.6573 17.4801 40.3192 17.7131 39.9045 17.8807C39.4925 18.0455 39.0167 18.1278 38.4769 18.1278ZM45.6232 18.1278C44.9528 18.1278 44.3761 17.9858 43.8931 17.7017C43.413 17.4148 43.0437 17.017 42.7852 16.5085C42.5295 16 42.4016 15.4148 42.4016 14.7528C42.4016 14.0824 42.5309 13.4943 42.7894 12.9886C43.0508 12.4801 43.4215 12.0838 43.9016 11.7997C44.3817 11.5128 44.9528 11.3693 45.6147 11.3693C46.1857 11.3693 46.6857 11.473 47.1147 11.6804C47.5437 11.8878 47.8832 12.179 48.1332 12.554C48.3832 12.929 48.521 13.3693 48.5465 13.875H46.8335C46.7852 13.5483 46.6573 13.2855 46.4499 13.0866C46.2454 12.8849 45.9769 12.7841 45.6445 12.7841C45.3633 12.7841 45.1175 12.8608 44.9073 13.0142C44.6999 13.1648 44.538 13.3849 44.4215 13.6747C44.305 13.9645 44.2468 14.3153 44.2468 14.7273C44.2468 15.1449 44.3036 15.5 44.4173 15.7926C44.5337 16.0852 44.6971 16.3082 44.9073 16.4616C45.1175 16.6151 45.3633 16.6918 45.6445 16.6918C45.8519 16.6918 46.038 16.6491 46.2028 16.5639C46.3704 16.4787 46.5082 16.3551 46.6161 16.1932C46.7269 16.0284 46.7994 15.831 46.8335 15.6009H48.5465C48.5181 16.1009 48.3817 16.5412 48.1374 16.9219C47.896 17.2997 47.5621 17.5952 47.136 17.8082C46.7099 18.0213 46.2056 18.1278 45.6232 18.1278ZM52.6662 18.1278C52.0043 18.1278 51.4318 17.9872 50.9489 17.706C50.4688 17.4219 50.098 17.027 49.8366 16.5213C49.5753 16.0128 49.4446 15.4233 49.4446 14.7528C49.4446 14.0767 49.5753 13.4858 49.8366 12.9801C50.098 12.4716 50.4688 12.0767 50.9489 11.7955C51.4318 11.5114 52.0043 11.3693 52.6662 11.3693C53.3281 11.3693 53.8991 11.5114 54.3793 11.7955C54.8622 12.0767 55.2344 12.4716 55.4957 12.9801C55.7571 13.4858 55.8878 14.0767 55.8878 14.7528C55.8878 15.4233 55.7571 16.0128 55.4957 16.5213C55.2344 17.027 54.8622 17.4219 54.3793 17.706C53.8991 17.9872 53.3281 18.1278 52.6662 18.1278ZM52.6747 16.7216C52.9759 16.7216 53.2273 16.6364 53.429 16.4659C53.6307 16.2926 53.7827 16.0568 53.8849 15.7585C53.9901 15.4602 54.0426 15.1207 54.0426 14.7401C54.0426 14.3594 53.9901 14.0199 53.8849 13.7216C53.7827 13.4233 53.6307 13.1875 53.429 13.0142C53.2273 12.8409 52.9759 12.7543 52.6747 12.7543C52.3707 12.7543 52.1151 12.8409 51.9077 13.0142C51.7031 13.1875 51.5483 13.4233 51.4432 13.7216C51.3409 14.0199 51.2898 14.3594 51.2898 14.7401C51.2898 15.1207 51.3409 15.4602 51.4432 15.7585C51.5483 16.0568 51.7031 16.2926 51.9077 16.4659C52.1151 16.6364 52.3707 16.7216 52.6747 16.7216ZM57.0682 18V11.4545H58.7983V12.6094H58.875C59.0114 12.2259 59.2386 11.9233 59.5568 11.7017C59.875 11.4801 60.2557 11.3693 60.6989 11.3693C61.1477 11.3693 61.5298 11.4815 61.8452 11.706C62.1605 11.9276 62.3707 12.2287 62.4759 12.6094H62.544C62.6776 12.2344 62.919 11.9347 63.2685 11.7102C63.6207 11.483 64.0369 11.3693 64.517 11.3693C65.1278 11.3693 65.6236 11.5639 66.0043 11.9531C66.3878 12.3395 66.5795 12.8878 66.5795 13.598V18H64.7685V13.956C64.7685 13.5923 64.6719 13.3196 64.4787 13.1378C64.2855 12.956 64.044 12.8651 63.7543 12.8651C63.4247 12.8651 63.1676 12.9702 62.983 13.1804C62.7983 13.3878 62.706 13.6619 62.706 14.0028V18H60.946V13.9176C60.946 13.5966 60.8537 13.3409 60.669 13.1506C60.4872 12.9602 60.2472 12.8651 59.9489 12.8651C59.7472 12.8651 59.5653 12.9162 59.4034 13.0185C59.2443 13.1179 59.1179 13.2585 59.0241 13.4403C58.9304 13.6193 58.8835 13.8295 58.8835 14.071V18H57.0682ZM70.9964 18.1278C70.3232 18.1278 69.7436 17.9915 69.2578 17.7188C68.7749 17.4432 68.4027 17.054 68.1413 16.5511C67.88 16.0455 67.7493 15.4474 67.7493 14.7571C67.7493 14.0838 67.88 13.4929 68.1413 12.9844C68.4027 12.4759 68.7706 12.0795 69.245 11.7955C69.7223 11.5114 70.282 11.3693 70.924 11.3693C71.3558 11.3693 71.7578 11.4389 72.13 11.5781C72.505 11.7145 72.8317 11.9205 73.1101 12.196C73.3913 12.4716 73.6101 12.8182 73.7663 13.2358C73.9226 13.6506 74.0007 14.1364 74.0007 14.6932V15.1918H68.4737V14.0668H72.2919C72.2919 13.8054 72.2351 13.5739 72.1214 13.3722C72.0078 13.1705 71.8501 13.0128 71.6484 12.8991C71.4496 12.7827 71.218 12.7244 70.9538 12.7244C70.6783 12.7244 70.4339 12.7884 70.2209 12.9162C70.0107 13.0412 69.8459 13.2102 69.7266 13.4233C69.6072 13.6335 69.5462 13.8679 69.5433 14.1264V15.196C69.5433 15.5199 69.603 15.7997 69.7223 16.0355C69.8445 16.2713 70.0163 16.4531 70.2379 16.581C70.4595 16.7088 70.7223 16.7727 71.0263 16.7727C71.228 16.7727 71.4126 16.7443 71.5803 16.6875C71.7479 16.6307 71.8913 16.5455 72.0107 16.4318C72.13 16.3182 72.2209 16.179 72.2834 16.0142L73.9624 16.125C73.8771 16.5284 73.7024 16.8807 73.4382 17.1818C73.1768 17.4801 72.8388 17.7131 72.424 17.8807C72.0121 18.0455 71.5362 18.1278 70.9964 18.1278ZM77.0007 14.2159V18H75.1854V11.4545H76.9155V12.6094H76.9922C77.1371 12.2287 77.38 11.9276 77.7209 11.706C78.0618 11.4815 78.4751 11.3693 78.9609 11.3693C79.4155 11.3693 79.8118 11.4688 80.1499 11.6676C80.4879 11.8665 80.7507 12.1506 80.9382 12.5199C81.1257 12.8864 81.2195 13.3239 81.2195 13.8324V18H79.4041V14.1562C79.407 13.7557 79.3047 13.4432 79.0973 13.2188C78.8899 12.9915 78.6044 12.8778 78.2408 12.8778C77.9964 12.8778 77.7805 12.9304 77.593 13.0355C77.4084 13.1406 77.2635 13.294 77.1584 13.4957C77.0561 13.6946 77.0036 13.9347 77.0007 14.2159ZM85.0621 18.1065C84.565 18.1065 84.1147 17.9787 83.7113 17.723C83.3107 17.4645 82.9925 17.0852 82.7567 16.5852C82.5238 16.0824 82.4073 15.4659 82.4073 14.7358C82.4073 13.9858 82.5281 13.3622 82.7695 12.8651C83.011 12.3651 83.332 11.9915 83.7326 11.7443C84.136 11.4943 84.5778 11.3693 85.0579 11.3693C85.4244 11.3693 85.7298 11.4318 85.9741 11.5568C86.2212 11.679 86.4201 11.8324 86.5707 12.017C86.7241 12.1989 86.8406 12.3778 86.9201 12.554H86.9755V9.27273H88.7866V18H86.9968V16.9517H86.9201C86.8349 17.1335 86.7141 17.3139 86.5579 17.4929C86.4045 17.669 86.2042 17.8153 85.957 17.9318C85.7127 18.0483 85.4144 18.1065 85.0621 18.1065ZM85.6374 16.6619C85.93 16.6619 86.1772 16.5824 86.3789 16.4233C86.5835 16.2614 86.7397 16.0355 86.8477 15.7457C86.9585 15.456 87.0138 15.1165 87.0138 14.7273C87.0138 14.3381 86.9599 14 86.8519 13.7131C86.744 13.4261 86.5877 13.2045 86.3832 13.0483C86.1786 12.892 85.93 12.8139 85.6374 12.8139C85.3391 12.8139 85.0877 12.8949 84.8832 13.0568C84.6786 13.2187 84.5238 13.4432 84.4187 13.7301C84.3136 14.017 84.261 14.3494 84.261 14.7273C84.261 15.108 84.3136 15.4446 84.4187 15.7372C84.5266 16.027 84.6815 16.2543 84.8832 16.419C85.0877 16.581 85.3391 16.6619 85.6374 16.6619ZM92.1456 18.1236C91.728 18.1236 91.3558 18.0511 91.0291 17.9062C90.7024 17.7585 90.4439 17.5412 90.2536 17.2543C90.0661 16.9645 89.9723 16.6037 89.9723 16.1719C89.9723 15.8082 90.0391 15.5028 90.1726 15.2557C90.3061 15.0085 90.4879 14.8097 90.718 14.6591C90.9482 14.5085 91.2095 14.3949 91.5021 14.3182C91.7976 14.2415 92.1072 14.1875 92.4311 14.1562C92.8118 14.1165 93.1186 14.0795 93.3516 14.0455C93.5845 14.0085 93.7536 13.9545 93.8587 13.8835C93.9638 13.8125 94.0163 13.7074 94.0163 13.5682V13.5426C94.0163 13.2727 93.9311 13.0639 93.7607 12.9162C93.593 12.7685 93.3544 12.6946 93.0447 12.6946C92.718 12.6946 92.4581 12.767 92.2649 12.9119C92.0717 13.054 91.9439 13.233 91.8814 13.4489L90.2024 13.3125C90.2876 12.9148 90.4553 12.571 90.7053 12.2812C90.9553 11.9886 91.2777 11.7642 91.6726 11.608C92.0703 11.4489 92.5305 11.3693 93.0533 11.3693C93.4169 11.3693 93.7649 11.4119 94.0973 11.4972C94.4325 11.5824 94.7294 11.7145 94.9879 11.8935C95.2493 12.0724 95.4553 12.3026 95.6058 12.5838C95.7564 12.8622 95.8317 13.196 95.8317 13.5852V18H94.1101V17.0923H94.0589C93.9538 17.2969 93.8132 17.4773 93.6371 17.6335C93.4609 17.7869 93.2493 17.9077 93.0021 17.9957C92.755 18.081 92.4695 18.1236 92.1456 18.1236ZM92.6655 16.8707C92.9325 16.8707 93.1683 16.8182 93.3729 16.7131C93.5774 16.6051 93.7379 16.4602 93.8544 16.2784C93.9709 16.0966 94.0291 15.8906 94.0291 15.6605V14.9659C93.9723 15.0028 93.8942 15.0369 93.7947 15.0682C93.6982 15.0966 93.5888 15.1236 93.4666 15.1491C93.3445 15.1719 93.2223 15.1932 93.1001 15.2131C92.978 15.2301 92.8672 15.2457 92.7678 15.2599C92.5547 15.2912 92.3686 15.3409 92.2095 15.4091C92.0504 15.4773 91.9268 15.5696 91.8388 15.6861C91.7507 15.7997 91.7067 15.9418 91.7067 16.1122C91.7067 16.3594 91.7962 16.5483 91.9751 16.679C92.157 16.8068 92.3871 16.8707 92.6655 16.8707ZM101.318 13.696V15.1364H97.3381V13.696H101.318ZM108.311 13.321L106.649 13.4233C106.621 13.2812 106.56 13.1534 106.466 13.0398C106.372 12.9233 106.249 12.831 106.095 12.7628C105.945 12.6918 105.764 12.6562 105.554 12.6562C105.273 12.6562 105.036 12.7159 104.842 12.8352C104.649 12.9517 104.553 13.108 104.553 13.304C104.553 13.4602 104.615 13.5923 104.74 13.7003C104.865 13.8082 105.08 13.8949 105.384 13.9602L106.568 14.1989C107.205 14.3295 107.679 14.5398 107.991 14.8295C108.304 15.1193 108.46 15.5 108.46 15.9716C108.46 16.4006 108.334 16.777 108.081 17.1009C107.831 17.4247 107.487 17.6776 107.05 17.8594C106.615 18.0384 106.114 18.1278 105.545 18.1278C104.679 18.1278 103.989 17.9474 103.474 17.5866C102.963 17.223 102.663 16.7287 102.575 16.1037L104.361 16.0099C104.415 16.2741 104.545 16.4759 104.753 16.6151C104.96 16.7514 105.226 16.8196 105.55 16.8196C105.868 16.8196 106.124 16.7585 106.317 16.6364C106.513 16.5114 106.612 16.3509 106.615 16.1548C106.612 15.9901 106.543 15.8551 106.406 15.75C106.27 15.642 106.06 15.5597 105.776 15.5028L104.642 15.277C104.003 15.1491 103.527 14.9276 103.214 14.6122C102.905 14.2969 102.75 13.8949 102.75 13.4062C102.75 12.9858 102.864 12.6236 103.091 12.3196C103.321 12.0156 103.643 11.7812 104.058 11.6165C104.476 11.4517 104.964 11.3693 105.524 11.3693C106.351 11.3693 107.001 11.544 107.476 11.8935C107.953 12.2429 108.232 12.7187 108.311 13.321ZM112.586 18.1278C111.913 18.1278 111.333 17.9915 110.848 17.7188C110.365 17.4432 109.993 17.054 109.731 16.5511C109.47 16.0455 109.339 15.4474 109.339 14.7571C109.339 14.0838 109.47 13.4929 109.731 12.9844C109.993 12.4759 110.36 12.0795 110.835 11.7955C111.312 11.5114 111.872 11.3693 112.514 11.3693C112.946 11.3693 113.348 11.4389 113.72 11.5781C114.095 11.7145 114.422 11.9205 114.7 12.196C114.981 12.4716 115.2 12.8182 115.356 13.2358C115.512 13.6506 115.591 14.1364 115.591 14.6932V15.1918H110.064V14.0668H113.882C113.882 13.8054 113.825 13.5739 113.711 13.3722C113.598 13.1705 113.44 13.0128 113.238 12.8991C113.039 12.7827 112.808 12.7244 112.544 12.7244C112.268 12.7244 112.024 12.7884 111.811 12.9162C111.6 13.0412 111.436 13.2102 111.316 13.4233C111.197 13.6335 111.136 13.8679 111.133 14.1264V15.196C111.133 15.5199 111.193 15.7997 111.312 16.0355C111.434 16.2713 111.606 16.4531 111.828 16.581C112.049 16.7088 112.312 16.7727 112.616 16.7727C112.818 16.7727 113.002 16.7443 113.17 16.6875C113.338 16.6307 113.481 16.5455 113.6 16.4318C113.72 16.3182 113.811 16.179 113.873 16.0142L115.552 16.125C115.467 16.5284 115.292 16.8807 115.028 17.1818C114.767 17.4801 114.429 17.7131 114.014 17.8807C113.602 18.0455 113.126 18.1278 112.586 18.1278ZM123.75 15.2131V11.4545H125.565V18H123.822V16.8111H123.754C123.607 17.1946 123.361 17.5028 123.017 17.7358C122.676 17.9687 122.26 18.0852 121.768 18.0852C121.331 18.0852 120.946 17.9858 120.614 17.7869C120.281 17.5881 120.021 17.3054 119.834 16.9389C119.649 16.5724 119.555 16.1335 119.553 15.6222V11.4545H121.368V15.2983C121.371 15.6847 121.474 15.9901 121.679 16.2145C121.884 16.4389 122.158 16.5511 122.501 16.5511C122.72 16.5511 122.925 16.5014 123.115 16.402C123.305 16.2997 123.459 16.1491 123.575 15.9503C123.695 15.7514 123.753 15.5057 123.75 15.2131ZM127.017 18V11.4545H128.748V12.6094H128.824C128.961 12.2259 129.188 11.9233 129.506 11.7017C129.824 11.4801 130.205 11.3693 130.648 11.3693C131.097 11.3693 131.479 11.4815 131.794 11.706C132.11 11.9276 132.32 12.2287 132.425 12.6094H132.493C132.627 12.2344 132.868 11.9347 133.218 11.7102C133.57 11.483 133.986 11.3693 134.466 11.3693C135.077 11.3693 135.573 11.5639 135.953 11.9531C136.337 12.3395 136.529 12.8878 136.529 13.598V18H134.718V13.956C134.718 13.5923 134.621 13.3196 134.428 13.1378C134.235 12.956 133.993 12.8651 133.703 12.8651C133.374 12.8651 133.117 12.9702 132.932 13.1804C132.748 13.3878 132.655 13.6619 132.655 14.0028V18H130.895V13.9176C130.895 13.5966 130.803 13.3409 130.618 13.1506C130.436 12.9602 130.196 12.8651 129.898 12.8651C129.696 12.8651 129.515 12.9162 129.353 13.0185C129.194 13.1179 129.067 13.2585 128.973 13.4403C128.88 13.6193 128.833 13.8295 128.833 14.071V18H127.017ZM139.829 18.1236C139.412 18.1236 139.039 18.0511 138.713 17.9062C138.386 17.7585 138.127 17.5412 137.937 17.2543C137.75 16.9645 137.656 16.6037 137.656 16.1719C137.656 15.8082 137.723 15.5028 137.856 15.2557C137.99 15.0085 138.172 14.8097 138.402 14.6591C138.632 14.5085 138.893 14.3949 139.186 14.3182C139.481 14.2415 139.791 14.1875 140.115 14.1562C140.495 14.1165 140.802 14.0795 141.035 14.0455C141.268 14.0085 141.437 13.9545 141.542 13.8835C141.647 13.8125 141.7 13.7074 141.7 13.5682V13.5426C141.7 13.2727 141.615 13.0639 141.444 12.9162C141.277 12.7685 141.038 12.6946 140.728 12.6946C140.402 12.6946 140.142 12.767 139.949 12.9119C139.755 13.054 139.627 13.233 139.565 13.4489L137.886 13.3125C137.971 12.9148 138.139 12.571 138.389 12.2812C138.639 11.9886 138.961 11.7642 139.356 11.608C139.754 11.4489 140.214 11.3693 140.737 11.3693C141.1 11.3693 141.449 11.4119 141.781 11.4972C142.116 11.5824 142.413 11.7145 142.672 11.8935C142.933 12.0724 143.139 12.3026 143.289 12.5838C143.44 12.8622 143.515 13.196 143.515 13.5852V18H141.794V17.0923H141.743C141.637 17.2969 141.497 17.4773 141.321 17.6335C141.145 17.7869 140.933 17.9077 140.686 17.9957C140.439 18.081 140.153 18.1236 139.829 18.1236ZM140.349 16.8707C140.616 16.8707 140.852 16.8182 141.056 16.7131C141.261 16.6051 141.422 16.4602 141.538 16.2784C141.654 16.0966 141.713 15.8906 141.713 15.6605V14.9659C141.656 15.0028 141.578 15.0369 141.478 15.0682C141.382 15.0966 141.272 15.1236 141.15 15.1491C141.028 15.1719 140.906 15.1932 140.784 15.2131C140.662 15.2301 140.551 15.2457 140.451 15.2599C140.238 15.2912 140.052 15.3409 139.893 15.4091C139.734 15.4773 139.61 15.5696 139.522 15.6861C139.434 15.7997 139.39 15.9418 139.39 16.1122C139.39 16.3594 139.48 16.5483 139.659 16.679C139.841 16.8068 140.071 16.8707 140.349 16.8707ZM153.147 13.321L151.485 13.4233C151.457 13.2812 151.396 13.1534 151.302 13.0398C151.208 12.9233 151.085 12.831 150.931 12.7628C150.781 12.6918 150.6 12.6562 150.39 12.6562C150.109 12.6562 149.871 12.7159 149.678 12.8352C149.485 12.9517 149.388 13.108 149.388 13.304C149.388 13.4602 149.451 13.5923 149.576 13.7003C149.701 13.8082 149.915 13.8949 150.219 13.9602L151.404 14.1989C152.04 14.3295 152.515 14.5398 152.827 14.8295C153.14 15.1193 153.296 15.5 153.296 15.9716C153.296 16.4006 153.17 16.777 152.917 17.1009C152.667 17.4247 152.323 17.6776 151.886 17.8594C151.451 18.0384 150.95 18.1278 150.381 18.1278C149.515 18.1278 148.825 17.9474 148.31 17.5866C147.799 17.223 147.499 16.7287 147.411 16.1037L149.197 16.0099C149.251 16.2741 149.381 16.4759 149.589 16.6151C149.796 16.7514 150.062 16.8196 150.386 16.8196C150.704 16.8196 150.96 16.7585 151.153 16.6364C151.349 16.5114 151.448 16.3509 151.451 16.1548C151.448 15.9901 151.379 15.8551 151.242 15.75C151.106 15.642 150.896 15.5597 150.612 15.5028L149.478 15.277C148.839 15.1491 148.363 14.9276 148.05 14.6122C147.741 14.2969 147.586 13.8949 147.586 13.4062C147.586 12.9858 147.7 12.6236 147.927 12.3196C148.157 12.0156 148.479 11.7812 148.894 11.6165C149.312 11.4517 149.8 11.3693 150.36 11.3693C151.187 11.3693 151.837 11.544 152.312 11.8935C152.789 12.2429 153.067 12.7187 153.147 13.321ZM157.422 18.1278C156.749 18.1278 156.169 17.9915 155.684 17.7188C155.201 17.4432 154.828 17.054 154.567 16.5511C154.306 16.0455 154.175 15.4474 154.175 14.7571C154.175 14.0838 154.306 13.4929 154.567 12.9844C154.828 12.4759 155.196 12.0795 155.671 11.7955C156.148 11.5114 156.708 11.3693 157.35 11.3693C157.782 11.3693 158.184 11.4389 158.556 11.5781C158.931 11.7145 159.257 11.9205 159.536 12.196C159.817 12.4716 160.036 12.8182 160.192 13.2358C160.348 13.6506 160.426 14.1364 160.426 14.6932V15.1918H154.9V14.0668H158.718C158.718 13.8054 158.661 13.5739 158.547 13.3722C158.434 13.1705 158.276 13.0128 158.074 12.8991C157.875 12.7827 157.644 12.7244 157.38 12.7244C157.104 12.7244 156.86 12.7884 156.647 12.9162C156.436 13.0412 156.272 13.2102 156.152 13.4233C156.033 13.6335 155.972 13.8679 155.969 14.1264V15.196C155.969 15.5199 156.029 15.7997 156.148 16.0355C156.27 16.2713 156.442 16.4531 156.664 16.581C156.885 16.7088 157.148 16.7727 157.452 16.7727C157.654 16.7727 157.838 16.7443 158.006 16.6875C158.174 16.6307 158.317 16.5455 158.436 16.4318C158.556 16.3182 158.647 16.179 158.709 16.0142L160.388 16.125C160.303 16.5284 160.128 16.8807 159.864 17.1818C159.603 17.4801 159.265 17.7131 158.85 17.8807C158.438 18.0455 157.962 18.1278 157.422 18.1278ZM163.426 14.2159V18H161.611V11.4545H163.341V12.6094H163.418C163.563 12.2287 163.806 11.9276 164.147 11.706C164.488 11.4815 164.901 11.3693 165.387 11.3693C165.841 11.3693 166.238 11.4688 166.576 11.6676C166.914 11.8665 167.176 12.1506 167.364 12.5199C167.551 12.8864 167.645 13.3239 167.645 13.8324V18H165.83V14.1562C165.833 13.7557 165.73 13.4432 165.523 13.2188C165.316 12.9915 165.03 12.8778 164.667 12.8778C164.422 12.8778 164.206 12.9304 164.019 13.0355C163.834 13.1406 163.689 13.294 163.584 13.4957C163.482 13.6946 163.429 13.9347 163.426 14.2159ZM170.891 14.2159V18H169.076V9.27273H170.84V12.6094H170.917C171.065 12.223 171.303 11.9205 171.633 11.7017C171.962 11.4801 172.376 11.3693 172.873 11.3693C173.327 11.3693 173.724 11.4688 174.062 11.6676C174.403 11.8636 174.667 12.1463 174.854 12.5156C175.045 12.8821 175.138 13.321 175.136 13.8324V18H173.32V14.1562C173.323 13.7528 173.221 13.4389 173.013 13.2145C172.809 12.9901 172.522 12.8778 172.153 12.8778C171.906 12.8778 171.687 12.9304 171.496 13.0355C171.309 13.1406 171.161 13.294 171.053 13.4957C170.948 13.6946 170.894 13.9347 170.891 14.2159ZM178.431 18.1236C178.013 18.1236 177.641 18.0511 177.314 17.9062C176.988 17.7585 176.729 17.5412 176.539 17.2543C176.351 16.9645 176.257 16.6037 176.257 16.1719C176.257 15.8082 176.324 15.5028 176.458 15.2557C176.591 15.0085 176.773 14.8097 177.003 14.6591C177.233 14.5085 177.495 14.3949 177.787 14.3182C178.083 14.2415 178.392 14.1875 178.716 14.1562C179.097 14.1165 179.404 14.0795 179.637 14.0455C179.87 14.0085 180.039 13.9545 180.144 13.8835C180.249 13.8125 180.301 13.7074 180.301 13.5682V13.5426C180.301 13.2727 180.216 13.0639 180.046 12.9162C179.878 12.7685 179.64 12.6946 179.33 12.6946C179.003 12.6946 178.743 12.767 178.55 12.9119C178.357 13.054 178.229 13.233 178.167 13.4489L176.488 13.3125C176.573 12.9148 176.74 12.571 176.99 12.2812C177.24 11.9886 177.563 11.7642 177.958 11.608C178.355 11.4489 178.816 11.3693 179.338 11.3693C179.702 11.3693 180.05 11.4119 180.382 11.4972C180.718 11.5824 181.015 11.7145 181.273 11.8935C181.534 12.0724 181.74 12.3026 181.891 12.5838C182.042 12.8622 182.117 13.196 182.117 13.5852V18H180.395V17.0923H180.344C180.239 17.2969 180.098 17.4773 179.922 17.6335C179.746 17.7869 179.534 17.9077 179.287 17.9957C179.04 18.081 178.755 18.1236 178.431 18.1236ZM178.951 16.8707C179.218 16.8707 179.453 16.8182 179.658 16.7131C179.863 16.6051 180.023 16.4602 180.14 16.2784C180.256 16.0966 180.314 15.8906 180.314 15.6605V14.9659C180.257 15.0028 180.179 15.0369 180.08 15.0682C179.983 15.0966 179.874 15.1236 179.752 15.1491C179.63 15.1719 179.507 15.1932 179.385 15.2131C179.263 15.2301 179.152 15.2457 179.053 15.2599C178.84 15.2912 178.654 15.3409 178.495 15.4091C178.336 15.4773 178.212 15.5696 178.124 15.6861C178.036 15.7997 177.992 15.9418 177.992 16.1122C177.992 16.3594 178.081 16.5483 178.26 16.679C178.442 16.8068 178.672 16.8707 178.951 16.8707ZM187.841 18H185.864L188.876 9.27273H191.254L194.263 18H192.286L190.099 11.267H190.031L187.841 18ZM187.717 14.5696H192.388V16.0099H187.717V14.5696ZM197.094 9.27273V18H195.279V9.27273H197.094ZM202.069 11.4545V12.8182H198.029V11.4545H202.069ZM198.953 18V10.9815C198.953 10.5071 199.046 10.1136 199.23 9.80114C199.418 9.48864 199.674 9.25426 199.998 9.09801C200.321 8.94176 200.689 8.86364 201.101 8.86364C201.38 8.86364 201.634 8.88494 201.864 8.92756C202.097 8.97017 202.27 9.00852 202.384 9.04261L202.06 10.4062C201.989 10.3835 201.901 10.3622 201.796 10.3423C201.694 10.3224 201.588 10.3125 201.48 10.3125C201.213 10.3125 201.027 10.375 200.922 10.5C200.817 10.6222 200.765 10.794 200.765 11.0156V18H198.953ZM204.81 18.1236C204.392 18.1236 204.02 18.0511 203.693 17.9062C203.366 17.7585 203.108 17.5412 202.918 17.2543C202.73 16.9645 202.636 16.6037 202.636 16.1719C202.636 15.8082 202.703 15.5028 202.837 15.2557C202.97 15.0085 203.152 14.8097 203.382 14.6591C203.612 14.5085 203.874 14.3949 204.166 14.3182C204.462 14.2415 204.771 14.1875 205.095 14.1562C205.476 14.1165 205.783 14.0795 206.016 14.0455C206.249 14.0085 206.418 13.9545 206.523 13.8835C206.628 13.8125 206.68 13.7074 206.68 13.5682V13.5426C206.68 13.2727 206.595 13.0639 206.425 12.9162C206.257 12.7685 206.018 12.6946 205.709 12.6946C205.382 12.6946 205.122 12.767 204.929 12.9119C204.736 13.054 204.608 13.233 204.545 13.4489L202.866 13.3125C202.952 12.9148 203.119 12.571 203.369 12.2812C203.619 11.9886 203.942 11.7642 204.337 11.608C204.734 11.4489 205.195 11.3693 205.717 11.3693C206.081 11.3693 206.429 11.4119 206.761 11.4972C207.097 11.5824 207.393 11.7145 207.652 11.8935C207.913 12.0724 208.119 12.3026 208.27 12.5838C208.42 12.8622 208.496 13.196 208.496 13.5852V18H206.774V17.0923H206.723C206.618 17.2969 206.477 17.4773 206.301 17.6335C206.125 17.7869 205.913 17.9077 205.666 17.9957C205.419 18.081 205.134 18.1236 204.81 18.1236ZM205.33 16.8707C205.597 16.8707 205.832 16.8182 206.037 16.7131C206.241 16.6051 206.402 16.4602 206.518 16.2784C206.635 16.0966 206.693 15.8906 206.693 15.6605V14.9659C206.636 15.0028 206.558 15.0369 206.459 15.0682C206.362 15.0966 206.253 15.1236 206.131 15.1491C206.009 15.1719 205.886 15.1932 205.764 15.2131C205.642 15.2301 205.531 15.2457 205.432 15.2599C205.219 15.2912 205.033 15.3409 204.874 15.4091C204.714 15.4773 204.591 15.5696 204.503 15.6861C204.415 15.7997 204.371 15.9418 204.371 16.1122C204.371 16.3594 204.46 16.5483 204.639 16.679C204.821 16.8068 205.051 16.8707 205.33 16.8707ZM211.719 14.2159V18H209.904V11.4545H211.634V12.6094H211.711C211.856 12.2287 212.099 11.9276 212.44 11.706C212.781 11.4815 213.194 11.3693 213.68 11.3693C214.134 11.3693 214.531 11.4688 214.869 11.6676C215.207 11.8665 215.469 12.1506 215.657 12.5199C215.844 12.8864 215.938 13.3239 215.938 13.8324V18H214.123V14.1562C214.126 13.7557 214.023 13.4432 213.816 13.2188C213.609 12.9915 213.323 12.8778 212.96 12.8778C212.715 12.8778 212.499 12.9304 212.312 13.0355C212.127 13.1406 211.982 13.294 211.877 13.4957C211.775 13.6946 211.722 13.9347 211.719 14.2159ZM221.566 15.2131V11.4545H223.382V18H221.639V16.8111H221.571C221.423 17.1946 221.177 17.5028 220.833 17.7358C220.493 17.9687 220.076 18.0852 219.585 18.0852C219.147 18.0852 218.762 17.9858 218.43 17.7869C218.098 17.5881 217.838 17.3054 217.65 16.9389C217.466 16.5724 217.372 16.1335 217.369 15.6222V11.4545H219.184V15.2983C219.187 15.6847 219.291 15.9901 219.495 16.2145C219.7 16.4389 219.974 16.5511 220.318 16.5511C220.537 16.5511 220.741 16.5014 220.931 16.402C221.122 16.2997 221.275 16.1491 221.392 15.9503C221.511 15.7514 221.569 15.5057 221.566 15.2131ZM219.73 10.6108L220.633 8.67188H222.312L221.012 10.6108H219.73ZM224.834 18V11.4545H226.564V12.6094H226.641C226.777 12.2259 227.004 11.9233 227.322 11.7017C227.641 11.4801 228.021 11.3693 228.464 11.3693C228.913 11.3693 229.295 11.4815 229.611 11.706C229.926 11.9276 230.136 12.2287 230.241 12.6094H230.31C230.443 12.2344 230.685 11.9347 231.034 11.7102C231.386 11.483 231.803 11.3693 232.283 11.3693C232.893 11.3693 233.389 11.5639 233.77 11.9531C234.153 12.3395 234.345 12.8878 234.345 13.598V18H232.534V13.956C232.534 13.5923 232.438 13.3196 232.244 13.1378C232.051 12.956 231.81 12.8651 231.52 12.8651C231.19 12.8651 230.933 12.9702 230.749 13.1804C230.564 13.3878 230.472 13.6619 230.472 14.0028V18H228.712V13.9176C228.712 13.5966 228.619 13.3409 228.435 13.1506C228.253 12.9602 228.013 12.8651 227.714 12.8651C227.513 12.8651 227.331 12.9162 227.169 13.0185C227.01 13.1179 226.884 13.2585 226.79 13.4403C226.696 13.6193 226.649 13.8295 226.649 14.071V18H224.834ZM238.762 18.1278C238.089 18.1278 237.509 17.9915 237.023 17.7188C236.54 17.4432 236.168 17.054 235.907 16.5511C235.646 16.0455 235.515 15.4474 235.515 14.7571C235.515 14.0838 235.646 13.4929 235.907 12.9844C236.168 12.4759 236.536 12.0795 237.011 11.7955C237.488 11.5114 238.048 11.3693 238.69 11.3693C239.121 11.3693 239.523 11.4389 239.896 11.5781C240.271 11.7145 240.597 11.9205 240.876 12.196C241.157 12.4716 241.376 12.8182 241.532 13.2358C241.688 13.6506 241.766 14.1364 241.766 14.6932V15.1918H236.239V14.0668H240.058C240.058 13.8054 240.001 13.5739 239.887 13.3722C239.773 13.1705 239.616 13.0128 239.414 12.8991C239.215 12.7827 238.984 12.7244 238.719 12.7244C238.444 12.7244 238.2 12.7884 237.987 12.9162C237.776 13.0412 237.612 13.2102 237.492 13.4233C237.373 13.6335 237.312 13.8679 237.309 14.1264V15.196C237.309 15.5199 237.369 15.7997 237.488 16.0355C237.61 16.2713 237.782 16.4531 238.004 16.581C238.225 16.7088 238.488 16.7727 238.792 16.7727C238.994 16.7727 239.178 16.7443 239.346 16.6875C239.513 16.6307 239.657 16.5455 239.776 16.4318C239.896 16.3182 239.987 16.179 240.049 16.0142L241.728 16.125C241.643 16.5284 241.468 16.8807 241.204 17.1818C240.942 17.4801 240.604 17.7131 240.19 17.8807C239.778 18.0455 239.302 18.1278 238.762 18.1278ZM242.951 18V11.4545H244.711V12.5966H244.779C244.898 12.1903 245.099 11.8835 245.38 11.6761C245.661 11.4659 245.985 11.3608 246.352 11.3608C246.442 11.3608 246.54 11.3665 246.646 11.3778C246.751 11.3892 246.843 11.4048 246.923 11.4247V13.0355C246.837 13.0099 246.719 12.9872 246.569 12.9673C246.418 12.9474 246.281 12.9375 246.156 12.9375C245.888 12.9375 245.65 12.9957 245.44 13.1122C245.232 13.2259 245.067 13.3849 244.945 13.5895C244.826 13.794 244.766 14.0298 244.766 14.2969V18H242.951ZM247.861 18V11.4545H249.676V18H247.861ZM248.773 10.6108C248.503 10.6108 248.272 10.5213 248.078 10.3423C247.888 10.1605 247.793 9.94318 247.793 9.69034C247.793 9.44034 247.888 9.22585 248.078 9.04688C248.272 8.86506 248.503 8.77415 248.773 8.77415C249.043 8.77415 249.273 8.86506 249.463 9.04688C249.657 9.22585 249.753 9.44034 249.753 9.69034C249.753 9.94318 249.657 10.1605 249.463 10.3423C249.273 10.5213 249.043 10.6108 248.773 10.6108ZM254.088 18.1278C253.418 18.1278 252.841 17.9858 252.358 17.7017C251.878 17.4148 251.509 17.017 251.25 16.5085C250.994 16 250.866 15.4148 250.866 14.7528C250.866 14.0824 250.996 13.4943 251.254 12.9886C251.516 12.4801 251.886 12.0838 252.366 11.7997C252.847 11.5128 253.418 11.3693 254.08 11.3693C254.651 11.3693 255.151 11.473 255.58 11.6804C256.009 11.8878 256.348 12.179 256.598 12.554C256.848 12.929 256.986 13.3693 257.011 13.875H255.298C255.25 13.5483 255.122 13.2855 254.915 13.0866C254.71 12.8849 254.442 12.7841 254.109 12.7841C253.828 12.7841 253.582 12.8608 253.372 13.0142C253.165 13.1648 253.003 13.3849 252.886 13.6747C252.77 13.9645 252.712 14.3153 252.712 14.7273C252.712 15.1449 252.768 15.5 252.882 15.7926C252.999 16.0852 253.162 16.3082 253.372 16.4616C253.582 16.6151 253.828 16.6918 254.109 16.6918C254.317 16.6918 254.503 16.6491 254.668 16.5639C254.835 16.4787 254.973 16.3551 255.081 16.1932C255.192 16.0284 255.264 15.831 255.298 15.6009H257.011C256.983 16.1009 256.847 16.5412 256.602 16.9219C256.361 17.2997 256.027 17.5952 255.601 17.8082C255.175 18.0213 254.67 18.1278 254.088 18.1278ZM260.04 18.1236C259.623 18.1236 259.25 18.0511 258.924 17.9062C258.597 17.7585 258.338 17.5412 258.148 17.2543C257.961 16.9645 257.867 16.6037 257.867 16.1719C257.867 15.8082 257.934 15.5028 258.067 15.2557C258.201 15.0085 258.382 14.8097 258.613 14.6591C258.843 14.5085 259.104 14.3949 259.397 14.3182C259.692 14.2415 260.002 14.1875 260.326 14.1562C260.706 14.1165 261.013 14.0795 261.246 14.0455C261.479 14.0085 261.648 13.9545 261.753 13.8835C261.858 13.8125 261.911 13.7074 261.911 13.5682V13.5426C261.911 13.2727 261.826 13.0639 261.655 12.9162C261.488 12.7685 261.249 12.6946 260.939 12.6946C260.613 12.6946 260.353 12.767 260.159 12.9119C259.966 13.054 259.838 13.233 259.776 13.4489L258.097 13.3125C258.182 12.9148 258.35 12.571 258.6 12.2812C258.85 11.9886 259.172 11.7642 259.567 11.608C259.965 11.4489 260.425 11.3693 260.948 11.3693C261.311 11.3693 261.659 11.4119 261.992 11.4972C262.327 11.5824 262.624 11.7145 262.882 11.8935C263.144 12.0724 263.35 12.3026 263.5 12.5838C263.651 12.8622 263.726 13.196 263.726 13.5852V18H262.005V17.0923H261.953C261.848 17.2969 261.708 17.4773 261.532 17.6335C261.355 17.7869 261.144 17.9077 260.897 17.9957C260.65 18.081 260.364 18.1236 260.04 18.1236ZM260.56 16.8707C260.827 16.8707 261.063 16.8182 261.267 16.7131C261.472 16.6051 261.632 16.4602 261.749 16.2784C261.865 16.0966 261.924 15.8906 261.924 15.6605V14.9659C261.867 15.0028 261.789 15.0369 261.689 15.0682C261.593 15.0966 261.483 15.1236 261.361 15.1491C261.239 15.1719 261.117 15.1932 260.995 15.2131C260.873 15.2301 260.762 15.2457 260.662 15.2599C260.449 15.2912 260.263 15.3409 260.104 15.4091C259.945 15.4773 259.821 15.5696 259.733 15.6861C259.645 15.7997 259.601 15.9418 259.601 16.1122C259.601 16.3594 259.691 16.5483 259.87 16.679C260.051 16.8068 260.282 16.8707 260.56 16.8707ZM272.237 20.4545V16.9517H272.182C272.097 17.1335 271.976 17.3139 271.82 17.4929C271.666 17.669 271.466 17.8153 271.219 17.9318C270.974 18.0483 270.676 18.1065 270.324 18.1065C269.827 18.1065 269.376 17.9787 268.973 17.723C268.572 17.4645 268.254 17.0852 268.018 16.5852C267.786 16.0824 267.669 15.4659 267.669 14.7358C267.669 13.9858 267.79 13.3622 268.031 12.8651C268.273 12.3651 268.594 11.9915 268.994 11.7443C269.398 11.4943 269.839 11.3693 270.32 11.3693C270.686 11.3693 270.991 11.4318 271.236 11.5568C271.483 11.679 271.682 11.8324 271.832 12.017C271.986 12.1989 272.102 12.3778 272.182 12.554H272.259V11.4545H274.048V20.4545H272.237ZM270.899 16.6619C271.192 16.6619 271.439 16.5824 271.641 16.4233C271.845 16.2614 272.001 16.0355 272.109 15.7457C272.22 15.456 272.276 15.1165 272.276 14.7273C272.276 14.3381 272.222 14 272.114 13.7131C272.006 13.4261 271.849 13.2045 271.645 13.0483C271.44 12.892 271.192 12.8139 270.899 12.8139C270.601 12.8139 270.349 12.8949 270.145 13.0568C269.94 13.2187 269.786 13.4432 269.68 13.7301C269.575 14.017 269.523 14.3494 269.523 14.7273C269.523 15.108 269.575 15.4446 269.68 15.7372C269.788 16.027 269.943 16.2543 270.145 16.419C270.349 16.581 270.601 16.6619 270.899 16.6619ZM279.703 15.2131V11.4545H281.518V18H279.776V16.8111H279.707C279.56 17.1946 279.314 17.5028 278.97 17.7358C278.629 17.9687 278.213 18.0852 277.722 18.0852C277.284 18.0852 276.899 17.9858 276.567 17.7869C276.234 17.5881 275.974 17.3054 275.787 16.9389C275.602 16.5724 275.509 16.1335 275.506 15.6222V11.4545H277.321V15.2983C277.324 15.6847 277.428 15.9901 277.632 16.2145C277.837 16.4389 278.111 16.5511 278.455 16.5511C278.673 16.5511 278.878 16.5014 279.068 16.402C279.259 16.2997 279.412 16.1491 279.528 15.9503C279.648 15.7514 279.706 15.5057 279.703 15.2131ZM285.953 18.1278C285.28 18.1278 284.701 17.9915 284.215 17.7188C283.732 17.4432 283.36 17.054 283.098 16.5511C282.837 16.0455 282.706 15.4474 282.706 14.7571C282.706 14.0838 282.837 13.4929 283.098 12.9844C283.36 12.4759 283.728 12.0795 284.202 11.7955C284.679 11.5114 285.239 11.3693 285.881 11.3693C286.313 11.3693 286.715 11.4389 287.087 11.5781C287.462 11.7145 287.789 11.9205 288.067 12.196C288.348 12.4716 288.567 12.8182 288.723 13.2358C288.88 13.6506 288.958 14.1364 288.958 14.6932V15.1918H283.431V14.0668H287.249C287.249 13.8054 287.192 13.5739 287.078 13.3722C286.965 13.1705 286.807 13.0128 286.605 12.8991C286.407 12.7827 286.175 12.7244 285.911 12.7244C285.635 12.7244 285.391 12.7884 285.178 12.9162C284.968 13.0412 284.803 13.2102 284.684 13.4233C284.564 13.6335 284.503 13.8679 284.5 14.1264V15.196C284.5 15.5199 284.56 15.7997 284.679 16.0355C284.801 16.2713 284.973 16.4531 285.195 16.581C285.417 16.7088 285.679 16.7727 285.983 16.7727C286.185 16.7727 286.37 16.7443 286.537 16.6875C286.705 16.6307 286.848 16.5455 286.968 16.4318C287.087 16.3182 287.178 16.179 287.24 16.0142L288.919 16.125C288.834 16.5284 288.659 16.8807 288.395 17.1818C288.134 17.4801 287.796 17.7131 287.381 17.8807C286.969 18.0455 286.493 18.1278 285.953 18.1278ZM295.877 18.1278C295.207 18.1278 294.63 17.9858 294.147 17.7017C293.667 17.4148 293.298 17.017 293.039 16.5085C292.783 16 292.656 15.4148 292.656 14.7528C292.656 14.0824 292.785 13.4943 293.043 12.9886C293.305 12.4801 293.675 12.0838 294.156 11.7997C294.636 11.5128 295.207 11.3693 295.869 11.3693C296.44 11.3693 296.94 11.473 297.369 11.6804C297.798 11.8878 298.137 12.179 298.387 12.554C298.637 12.929 298.775 13.3693 298.8 13.875H297.087C297.039 13.5483 296.911 13.2855 296.704 13.0866C296.499 12.8849 296.231 12.7841 295.898 12.7841C295.617 12.7841 295.371 12.8608 295.161 13.0142C294.954 13.1648 294.792 13.3849 294.675 13.6747C294.559 13.9645 294.501 14.3153 294.501 14.7273C294.501 15.1449 294.558 15.5 294.671 15.7926C294.788 16.0852 294.951 16.3082 295.161 16.4616C295.371 16.6151 295.617 16.6918 295.898 16.6918C296.106 16.6918 296.292 16.6491 296.457 16.5639C296.624 16.4787 296.762 16.3551 296.87 16.1932C296.981 16.0284 297.053 15.831 297.087 15.6009H298.8C298.772 16.1009 298.636 16.5412 298.391 16.9219C298.15 17.2997 297.816 17.5952 297.39 17.8082C296.964 18.0213 296.46 18.1278 295.877 18.1278ZM302.92 18.1278C302.258 18.1278 301.686 17.9872 301.203 17.706C300.723 17.4219 300.352 17.027 300.091 16.5213C299.829 16.0128 299.699 15.4233 299.699 14.7528C299.699 14.0767 299.829 13.4858 300.091 12.9801C300.352 12.4716 300.723 12.0767 301.203 11.7955C301.686 11.5114 302.258 11.3693 302.92 11.3693C303.582 11.3693 304.153 11.5114 304.633 11.7955C305.116 12.0767 305.488 12.4716 305.75 12.9801C306.011 13.4858 306.142 14.0767 306.142 14.7528C306.142 15.4233 306.011 16.0128 305.75 16.5213C305.488 17.027 305.116 17.4219 304.633 17.706C304.153 17.9872 303.582 18.1278 302.92 18.1278ZM302.929 16.7216C303.23 16.7216 303.481 16.6364 303.683 16.4659C303.885 16.2926 304.037 16.0568 304.139 15.7585C304.244 15.4602 304.297 15.1207 304.297 14.7401C304.297 14.3594 304.244 14.0199 304.139 13.7216C304.037 13.4233 303.885 13.1875 303.683 13.0142C303.481 12.8409 303.23 12.7543 302.929 12.7543C302.625 12.7543 302.369 12.8409 302.162 13.0142C301.957 13.1875 301.802 13.4233 301.697 13.7216C301.595 14.0199 301.544 14.3594 301.544 14.7401C301.544 15.1207 301.595 15.4602 301.697 15.7585C301.802 16.0568 301.957 16.2926 302.162 16.4659C302.369 16.6364 302.625 16.7216 302.929 16.7216ZM309.137 14.2159V18H307.322V11.4545H309.052V12.6094H309.129C309.274 12.2287 309.517 11.9276 309.858 11.706C310.199 11.4815 310.612 11.3693 311.098 11.3693C311.552 11.3693 311.949 11.4688 312.287 11.6676C312.625 11.8665 312.887 12.1506 313.075 12.5199C313.262 12.8864 313.356 13.3239 313.356 13.8324V18H311.541V14.1562C311.544 13.7557 311.441 13.4432 311.234 13.2188C311.027 12.9915 310.741 12.8778 310.377 12.8778C310.133 12.8778 309.917 12.9304 309.73 13.0355C309.545 13.1406 309.4 13.294 309.295 13.4957C309.193 13.6946 309.14 13.9347 309.137 14.2159ZM318.268 11.4545V12.8182H314.327V11.4545H318.268ZM315.222 9.88636H317.037V15.9886C317.037 16.1562 317.063 16.2869 317.114 16.3807C317.165 16.4716 317.236 16.5355 317.327 16.5724C317.42 16.6094 317.528 16.6278 317.651 16.6278C317.736 16.6278 317.821 16.6207 317.906 16.6065C317.991 16.5895 318.057 16.5767 318.102 16.5682L318.388 17.919C318.297 17.9474 318.169 17.9801 318.004 18.017C317.839 18.0568 317.639 18.081 317.403 18.0895C316.966 18.1065 316.582 18.0483 316.253 17.9148C315.926 17.7812 315.672 17.5739 315.49 17.2926C315.308 17.0114 315.219 16.6562 315.222 16.2273V9.88636ZM322.364 18.1278C321.69 18.1278 321.111 17.9915 320.625 17.7188C320.142 17.4432 319.77 17.054 319.509 16.5511C319.247 16.0455 319.116 15.4474 319.116 14.7571C319.116 14.0838 319.247 13.4929 319.509 12.9844C319.77 12.4759 320.138 12.0795 320.612 11.7955C321.089 11.5114 321.649 11.3693 322.291 11.3693C322.723 11.3693 323.125 11.4389 323.497 11.5781C323.872 11.7145 324.199 11.9205 324.477 12.196C324.759 12.4716 324.977 12.8182 325.134 13.2358C325.29 13.6506 325.368 14.1364 325.368 14.6932V15.1918H319.841V14.0668H323.659C323.659 13.8054 323.602 13.5739 323.489 13.3722C323.375 13.1705 323.217 13.0128 323.016 12.8991C322.817 12.7827 322.585 12.7244 322.321 12.7244C322.045 12.7244 321.801 12.7884 321.588 12.9162C321.378 13.0412 321.213 13.2102 321.094 13.4233C320.974 13.6335 320.913 13.8679 320.911 14.1264V15.196C320.911 15.5199 320.97 15.7997 321.089 16.0355C321.212 16.2713 321.384 16.4531 321.605 16.581C321.827 16.7088 322.089 16.7727 322.393 16.7727C322.595 16.7727 322.78 16.7443 322.947 16.6875C323.115 16.6307 323.259 16.5455 323.378 16.4318C323.497 16.3182 323.588 16.179 323.651 16.0142L325.33 16.125C325.244 16.5284 325.07 16.8807 324.805 17.1818C324.544 17.4801 324.206 17.7131 323.791 17.8807C323.379 18.0455 322.903 18.1278 322.364 18.1278ZM328.368 14.2159V18H326.553V11.4545H328.283V12.6094H328.359C328.504 12.2287 328.747 11.9276 329.088 11.706C329.429 11.4815 329.842 11.3693 330.328 11.3693C330.783 11.3693 331.179 11.4688 331.517 11.6676C331.855 11.8665 332.118 12.1506 332.305 12.5199C332.493 12.8864 332.587 13.3239 332.587 13.8324V18H330.771V14.1562C330.774 13.7557 330.672 13.4432 330.464 13.2188C330.257 12.9915 329.972 12.8778 329.608 12.8778C329.364 12.8778 329.148 12.9304 328.96 13.0355C328.776 13.1406 328.631 13.294 328.526 13.4957C328.423 13.6946 328.371 13.9347 328.368 14.2159ZM335.833 14.2159V18H334.017V9.27273H335.782V12.6094H335.858C336.006 12.223 336.245 11.9205 336.574 11.7017C336.904 11.4801 337.317 11.3693 337.814 11.3693C338.269 11.3693 338.665 11.4688 339.003 11.6676C339.344 11.8636 339.608 12.1463 339.796 12.5156C339.986 12.8821 340.08 13.321 340.077 13.8324V18H338.262V14.1562C338.265 13.7528 338.162 13.4389 337.955 13.2145C337.75 12.9901 337.463 12.8778 337.094 12.8778C336.847 12.8778 336.628 12.9304 336.438 13.0355C336.25 13.1406 336.103 13.294 335.995 13.4957C335.89 13.6946 335.836 13.9347 335.833 14.2159ZM343.372 18.1236C342.955 18.1236 342.582 18.0511 342.256 17.9062C341.929 17.7585 341.67 17.5412 341.48 17.2543C341.293 16.9645 341.199 16.6037 341.199 16.1719C341.199 15.8082 341.266 15.5028 341.399 15.2557C341.533 15.0085 341.714 14.8097 341.945 14.6591C342.175 14.5085 342.436 14.3949 342.729 14.3182C343.024 14.2415 343.334 14.1875 343.658 14.1562C344.038 14.1165 344.345 14.0795 344.578 14.0455C344.811 14.0085 344.98 13.9545 345.085 13.8835C345.19 13.8125 345.243 13.7074 345.243 13.5682V13.5426C345.243 13.2727 345.158 13.0639 344.987 12.9162C344.82 12.7685 344.581 12.6946 344.271 12.6946C343.945 12.6946 343.685 12.767 343.491 12.9119C343.298 13.054 343.17 13.233 343.108 13.4489L341.429 13.3125C341.514 12.9148 341.682 12.571 341.932 12.2812C342.182 11.9886 342.504 11.7642 342.899 11.608C343.297 11.4489 343.757 11.3693 344.28 11.3693C344.643 11.3693 344.991 11.4119 345.324 11.4972C345.659 11.5824 345.956 11.7145 346.214 11.8935C346.476 12.0724 346.682 12.3026 346.832 12.5838C346.983 12.8622 347.058 13.196 347.058 13.5852V18H345.337V17.0923H345.286C345.18 17.2969 345.04 17.4773 344.864 17.6335C344.688 17.7869 344.476 17.9077 344.229 17.9957C343.982 18.081 343.696 18.1236 343.372 18.1236ZM343.892 16.8707C344.159 16.8707 344.395 16.8182 344.599 16.7131C344.804 16.6051 344.964 16.4602 345.081 16.2784C345.197 16.0966 345.256 15.8906 345.256 15.6605V14.9659C345.199 15.0028 345.121 15.0369 345.021 15.0682C344.925 15.0966 344.815 15.1236 344.693 15.1491C344.571 15.1719 344.449 15.1932 344.327 15.2131C344.205 15.2301 344.094 15.2457 343.994 15.2599C343.781 15.2912 343.595 15.3409 343.436 15.4091C343.277 15.4773 343.153 15.5696 343.065 15.6861C342.977 15.7997 342.933 15.9418 342.933 16.1122C342.933 16.3594 343.023 16.5483 343.202 16.679C343.384 16.8068 343.614 16.8707 343.892 16.8707ZM353.11 18.1236C352.693 18.1236 352.321 18.0511 351.994 17.9062C351.667 17.7585 351.409 17.5412 351.218 17.2543C351.031 16.9645 350.937 16.6037 350.937 16.1719C350.937 15.8082 351.004 15.5028 351.137 15.2557C351.271 15.0085 351.453 14.8097 351.683 14.6591C351.913 14.5085 352.174 14.3949 352.467 14.3182C352.762 14.2415 353.072 14.1875 353.396 14.1562C353.777 14.1165 354.083 14.0795 354.316 14.0455C354.549 14.0085 354.718 13.9545 354.824 13.8835C354.929 13.8125 354.981 13.7074 354.981 13.5682V13.5426C354.981 13.2727 354.896 13.0639 354.725 12.9162C354.558 12.7685 354.319 12.6946 354.01 12.6946C353.683 12.6946 353.423 12.767 353.23 12.9119C353.037 13.054 352.909 13.233 352.846 13.4489L351.167 13.3125C351.252 12.9148 351.42 12.571 351.67 12.2812C351.92 11.9886 352.243 11.7642 352.637 11.608C353.035 11.4489 353.495 11.3693 354.018 11.3693C354.382 11.3693 354.73 11.4119 355.062 11.4972C355.397 11.5824 355.694 11.7145 355.953 11.8935C356.214 12.0724 356.42 12.3026 356.571 12.5838C356.721 12.8622 356.797 13.196 356.797 13.5852V18H355.075V17.0923H355.024C354.919 17.2969 354.778 17.4773 354.602 17.6335C354.426 17.7869 354.214 17.9077 353.967 17.9957C353.72 18.081 353.434 18.1236 353.11 18.1236ZM353.63 16.8707C353.897 16.8707 354.133 16.8182 354.338 16.7131C354.542 16.6051 354.703 16.4602 354.819 16.2784C354.936 16.0966 354.994 15.8906 354.994 15.6605V14.9659C354.937 15.0028 354.859 15.0369 354.76 15.0682C354.663 15.0966 354.554 15.1236 354.431 15.1491C354.309 15.1719 354.187 15.1932 354.065 15.2131C353.943 15.2301 353.832 15.2457 353.733 15.2599C353.52 15.2912 353.333 15.3409 353.174 15.4091C353.015 15.4773 352.892 15.5696 352.804 15.6861C352.716 15.7997 352.672 15.9418 352.672 16.1122C352.672 16.3594 352.761 16.5483 352.94 16.679C353.122 16.8068 353.352 16.8707 353.63 16.8707ZM361.162 18.1278C360.5 18.1278 359.928 17.9872 359.445 17.706C358.965 17.4219 358.594 17.027 358.333 16.5213C358.071 16.0128 357.941 15.4233 357.941 14.7528C357.941 14.0767 358.071 13.4858 358.333 12.9801C358.594 12.4716 358.965 12.0767 359.445 11.7955C359.928 11.5114 360.5 11.3693 361.162 11.3693C361.824 11.3693 362.395 11.5114 362.875 11.7955C363.358 12.0767 363.73 12.4716 363.992 12.9801C364.253 13.4858 364.384 14.0767 364.384 14.7528C364.384 15.4233 364.253 16.0128 363.992 16.5213C363.73 17.027 363.358 17.4219 362.875 17.706C362.395 17.9872 361.824 18.1278 361.162 18.1278ZM361.171 16.7216C361.472 16.7216 361.723 16.6364 361.925 16.4659C362.127 16.2926 362.279 16.0568 362.381 15.7585C362.486 15.4602 362.539 15.1207 362.539 14.7401C362.539 14.3594 362.486 14.0199 362.381 13.7216C362.279 13.4233 362.127 13.1875 361.925 13.0142C361.723 12.8409 361.472 12.7543 361.171 12.7543C360.867 12.7543 360.611 12.8409 360.404 13.0142C360.199 13.1875 360.044 13.4233 359.939 13.7216C359.837 14.0199 359.786 14.3594 359.786 14.7401C359.786 15.1207 359.837 15.4602 359.939 15.7585C360.044 16.0568 360.199 16.2926 360.404 16.4659C360.611 16.6364 360.867 16.7216 361.171 16.7216ZM368.342 18V11.4545H370.072V12.6094H370.148C370.285 12.2259 370.512 11.9233 370.83 11.7017C371.148 11.4801 371.529 11.3693 371.972 11.3693C372.421 11.3693 372.803 11.4815 373.119 11.706C373.434 11.9276 373.644 12.2287 373.749 12.6094H373.817C373.951 12.2344 374.192 11.9347 374.542 11.7102C374.894 11.483 375.31 11.3693 375.79 11.3693C376.401 11.3693 376.897 11.5639 377.278 11.9531C377.661 12.3395 377.853 12.8878 377.853 13.598V18H376.042V13.956C376.042 13.5923 375.945 13.3196 375.752 13.1378C375.559 12.956 375.317 12.8651 375.028 12.8651C374.698 12.8651 374.441 12.9702 374.256 13.1804C374.072 13.3878 373.979 13.6619 373.979 14.0028V18H372.219V13.9176C372.219 13.5966 372.127 13.3409 371.942 13.1506C371.761 12.9602 371.521 12.8651 371.222 12.8651C371.021 12.8651 370.839 12.9162 370.677 13.0185C370.518 13.1179 370.391 13.2585 370.298 13.4403C370.204 13.6193 370.157 13.8295 370.157 14.071V18H368.342ZM382.27 18.1278C381.597 18.1278 381.017 17.9915 380.531 17.7188C380.048 17.4432 379.676 17.054 379.415 16.5511C379.153 16.0455 379.023 15.4474 379.023 14.7571C379.023 14.0838 379.153 13.4929 379.415 12.9844C379.676 12.4759 380.044 12.0795 380.518 11.7955C380.996 11.5114 381.555 11.3693 382.197 11.3693C382.629 11.3693 383.031 11.4389 383.403 11.5781C383.778 11.7145 384.105 11.9205 384.384 12.196C384.665 12.4716 384.884 12.8182 385.04 13.2358C385.196 13.6506 385.274 14.1364 385.274 14.6932V15.1918H379.747V14.0668H383.565C383.565 13.8054 383.509 13.5739 383.395 13.3722C383.281 13.1705 383.124 13.0128 382.922 12.8991C382.723 12.7827 382.491 12.7244 382.227 12.7244C381.952 12.7244 381.707 12.7884 381.494 12.9162C381.284 13.0412 381.119 13.2102 381 13.4233C380.881 13.6335 380.82 13.8679 380.817 14.1264V15.196C380.817 15.5199 380.876 15.7997 380.996 16.0355C381.118 16.2713 381.29 16.4531 381.511 16.581C381.733 16.7088 381.996 16.7727 382.3 16.7727C382.501 16.7727 382.686 16.7443 382.854 16.6875C383.021 16.6307 383.165 16.5455 383.284 16.4318C383.403 16.3182 383.494 16.179 383.557 16.0142L385.236 16.125C385.151 16.5284 384.976 16.8807 384.712 17.1818C384.45 17.4801 384.112 17.7131 383.697 17.8807C383.286 18.0455 382.81 18.1278 382.27 18.1278ZM388.274 14.2159V18H386.459V11.4545H388.189V12.6094H388.266C388.411 12.2287 388.653 11.9276 388.994 11.706C389.335 11.4815 389.749 11.3693 390.234 11.3693C390.689 11.3693 391.085 11.4688 391.423 11.6676C391.761 11.8665 392.024 12.1506 392.212 12.5199C392.399 12.8864 392.493 13.3239 392.493 13.8324V18H390.678V14.1562C390.68 13.7557 390.578 13.4432 390.371 13.2188C390.163 12.9915 389.878 12.8778 389.514 12.8778C389.27 12.8778 389.054 12.9304 388.866 13.0355C388.682 13.1406 388.537 13.294 388.432 13.4957C388.33 13.6946 388.277 13.9347 388.274 14.2159ZM396.881 18.1278C396.219 18.1278 395.647 17.9872 395.164 17.706C394.684 17.4219 394.313 17.027 394.051 16.5213C393.79 16.0128 393.659 15.4233 393.659 14.7528C393.659 14.0767 393.79 13.4858 394.051 12.9801C394.313 12.4716 394.684 12.0767 395.164 11.7955C395.647 11.5114 396.219 11.3693 396.881 11.3693C397.543 11.3693 398.114 11.5114 398.594 11.7955C399.077 12.0767 399.449 12.4716 399.711 12.9801C399.972 13.4858 400.103 14.0767 400.103 14.7528C400.103 15.4233 399.972 16.0128 399.711 16.5213C399.449 17.027 399.077 17.4219 398.594 17.706C398.114 17.9872 397.543 18.1278 396.881 18.1278ZM396.89 16.7216C397.191 16.7216 397.442 16.6364 397.644 16.4659C397.846 16.2926 397.998 16.0568 398.1 15.7585C398.205 15.4602 398.257 15.1207 398.257 14.7401C398.257 14.3594 398.205 14.0199 398.1 13.7216C397.998 13.4233 397.846 13.1875 397.644 13.0142C397.442 12.8409 397.191 12.7543 396.89 12.7543C396.586 12.7543 396.33 12.8409 396.123 13.0142C395.918 13.1875 395.763 13.4233 395.658 13.7216C395.556 14.0199 395.505 14.3594 395.505 14.7401C395.505 15.1207 395.556 15.4602 395.658 15.7585C395.763 16.0568 395.918 16.2926 396.123 16.4659C396.33 16.6364 396.586 16.7216 396.89 16.7216ZM406.729 13.321L405.067 13.4233C405.039 13.2812 404.978 13.1534 404.884 13.0398C404.79 12.9233 404.667 12.831 404.513 12.7628C404.363 12.6918 404.182 12.6562 403.972 12.6562C403.691 12.6562 403.453 12.7159 403.26 12.8352C403.067 12.9517 402.971 13.108 402.971 13.304C402.971 13.4602 403.033 13.5923 403.158 13.7003C403.283 13.8082 403.498 13.8949 403.801 13.9602L404.986 14.1989C405.623 14.3295 406.097 14.5398 406.409 14.8295C406.722 15.1193 406.878 15.5 406.878 15.9716C406.878 16.4006 406.752 16.777 406.499 17.1009C406.249 17.4247 405.905 17.6776 405.468 17.8594C405.033 18.0384 404.532 18.1278 403.963 18.1278C403.097 18.1278 402.407 17.9474 401.892 17.5866C401.381 17.223 401.081 16.7287 400.993 16.1037L402.779 16.0099C402.833 16.2741 402.963 16.4759 403.171 16.6151C403.378 16.7514 403.644 16.8196 403.968 16.8196C404.286 16.8196 404.542 16.7585 404.735 16.6364C404.931 16.5114 405.03 16.3509 405.033 16.1548C405.03 15.9901 404.961 15.8551 404.824 15.75C404.688 15.642 404.478 15.5597 404.194 15.5028L403.06 15.277C402.421 15.1491 401.945 14.9276 401.632 14.6122C401.323 14.2969 401.168 13.8949 401.168 13.4062C401.168 12.9858 401.282 12.6236 401.509 12.3196C401.739 12.0156 402.061 11.7812 402.476 11.6165C402.894 11.4517 403.382 11.3693 403.942 11.3693C404.769 11.3693 405.419 11.544 405.894 11.8935C406.371 12.2429 406.65 12.7187 406.729 13.321ZM414.996 15.2131V11.4545H416.811V18H415.069V16.8111H415C414.853 17.1946 414.607 17.5028 414.263 17.7358C413.922 17.9687 413.506 18.0852 413.015 18.0852C412.577 18.0852 412.192 17.9858 411.86 17.7869C411.527 17.5881 411.267 17.3054 411.08 16.9389C410.895 16.5724 410.801 16.1335 410.799 15.6222V11.4545H412.614V15.2983C412.617 15.6847 412.721 15.9901 412.925 16.2145C413.13 16.4389 413.404 16.5511 413.748 16.5511C413.966 16.5511 414.171 16.5014 414.361 16.402C414.551 16.2997 414.705 16.1491 414.821 15.9503C414.941 15.7514 414.999 15.5057 414.996 15.2131ZM418.263 18V11.4545H419.994V12.6094H420.07C420.207 12.2259 420.434 11.9233 420.752 11.7017C421.07 11.4801 421.451 11.3693 421.894 11.3693C422.343 11.3693 422.725 11.4815 423.04 11.706C423.356 11.9276 423.566 12.2287 423.671 12.6094H423.739C423.873 12.2344 424.114 11.9347 424.464 11.7102C424.816 11.483 425.232 11.3693 425.712 11.3693C426.323 11.3693 426.819 11.5639 427.2 11.9531C427.583 12.3395 427.775 12.8878 427.775 13.598V18H425.964V13.956C425.964 13.5923 425.867 13.3196 425.674 13.1378C425.481 12.956 425.239 12.8651 424.95 12.8651C424.62 12.8651 424.363 12.9702 424.178 13.1804C423.994 13.3878 423.901 13.6619 423.901 14.0028V18H422.141V13.9176C422.141 13.5966 422.049 13.3409 421.864 13.1506C421.683 12.9602 421.442 12.8651 421.144 12.8651C420.942 12.8651 420.761 12.9162 420.599 13.0185C420.44 13.1179 420.313 13.2585 420.219 13.4403C420.126 13.6193 420.079 13.8295 420.079 14.071V18H418.263ZM431.075 18.1236C430.658 18.1236 430.286 18.0511 429.959 17.9062C429.632 17.7585 429.374 17.5412 429.183 17.2543C428.996 16.9645 428.902 16.6037 428.902 16.1719C428.902 15.8082 428.969 15.5028 429.102 15.2557C429.236 15.0085 429.418 14.8097 429.648 14.6591C429.878 14.5085 430.139 14.3949 430.432 14.3182C430.727 14.2415 431.037 14.1875 431.361 14.1562C431.741 14.1165 432.048 14.0795 432.281 14.0455C432.514 14.0085 432.683 13.9545 432.788 13.8835C432.893 13.8125 432.946 13.7074 432.946 13.5682V13.5426C432.946 13.2727 432.861 13.0639 432.69 12.9162C432.523 12.7685 432.284 12.6946 431.974 12.6946C431.648 12.6946 431.388 12.767 431.195 12.9119C431.001 13.054 430.874 13.233 430.811 13.4489L429.132 13.3125C429.217 12.9148 429.385 12.571 429.635 12.2812C429.885 11.9886 430.207 11.7642 430.602 11.608C431 11.4489 431.46 11.3693 431.983 11.3693C432.347 11.3693 432.695 11.4119 433.027 11.4972C433.362 11.5824 433.659 11.7145 433.918 11.8935C434.179 12.0724 434.385 12.3026 434.536 12.5838C434.686 12.8622 434.761 13.196 434.761 13.5852V18H433.04V17.0923H432.989C432.884 17.2969 432.743 17.4773 432.567 17.6335C432.391 17.7869 432.179 17.9077 431.932 17.9957C431.685 18.081 431.399 18.1236 431.075 18.1236ZM431.595 16.8707C431.862 16.8707 432.098 16.8182 432.303 16.7131C432.507 16.6051 432.668 16.4602 432.784 16.2784C432.901 16.0966 432.959 15.8906 432.959 15.6605V14.9659C432.902 15.0028 432.824 15.0369 432.724 15.0682C432.628 15.0966 432.518 15.1236 432.396 15.1491C432.274 15.1719 432.152 15.1932 432.03 15.2131C431.908 15.2301 431.797 15.2457 431.697 15.2599C431.484 15.2912 431.298 15.3409 431.139 15.4091C430.98 15.4773 430.857 15.5696 430.768 15.6861C430.68 15.7997 430.636 15.9418 430.636 16.1122C430.636 16.3594 430.726 16.5483 430.905 16.679C431.087 16.8068 431.317 16.8707 431.595 16.8707ZM440.762 9.27273V18H438.947V9.27273H440.762ZM445.2 18.1278C444.526 18.1278 443.947 17.9915 443.461 17.7188C442.978 17.4432 442.606 17.054 442.344 16.5511C442.083 16.0455 441.952 15.4474 441.952 14.7571C441.952 14.0838 442.083 13.4929 442.344 12.9844C442.606 12.4759 442.974 12.0795 443.448 11.7955C443.925 11.5114 444.485 11.3693 445.127 11.3693C445.559 11.3693 445.961 11.4389 446.333 11.5781C446.708 11.7145 447.035 11.9205 447.313 12.196C447.594 12.4716 447.813 12.8182 447.969 13.2358C448.126 13.6506 448.204 14.1364 448.204 14.6932V15.1918H442.677V14.0668H446.495C446.495 13.8054 446.438 13.5739 446.325 13.3722C446.211 13.1705 446.053 13.0128 445.852 12.8991C445.653 12.7827 445.421 12.7244 445.157 12.7244C444.881 12.7244 444.637 12.7884 444.424 12.9162C444.214 13.0412 444.049 13.2102 443.93 13.4233C443.81 13.6335 443.749 13.8679 443.746 14.1264V15.196C443.746 15.5199 443.806 15.7997 443.925 16.0355C444.048 16.2713 444.219 16.4531 444.441 16.581C444.663 16.7088 444.925 16.7727 445.229 16.7727C445.431 16.7727 445.616 16.7443 445.783 16.6875C445.951 16.6307 446.094 16.5455 446.214 16.4318C446.333 16.3182 446.424 16.179 446.487 16.0142L448.165 16.125C448.08 16.5284 447.906 16.8807 447.641 17.1818C447.38 17.4801 447.042 17.7131 446.627 17.8807C446.215 18.0455 445.739 18.1278 445.2 18.1278ZM452.87 11.4545V12.8182H448.928V11.4545H452.87ZM449.823 9.88636H451.638V15.9886C451.638 16.1562 451.664 16.2869 451.715 16.3807C451.766 16.4716 451.837 16.5355 451.928 16.5724C452.022 16.6094 452.13 16.6278 452.252 16.6278C452.337 16.6278 452.423 16.6207 452.508 16.6065C452.593 16.5895 452.658 16.5767 452.704 16.5682L452.989 17.919C452.898 17.9474 452.771 17.9801 452.606 18.017C452.441 18.0568 452.241 18.081 452.005 18.0895C451.567 18.1065 451.184 18.0483 450.854 17.9148C450.528 17.7812 450.273 17.5739 450.092 17.2926C449.91 17.0114 449.82 16.6562 449.823 16.2273V9.88636ZM454.053 18V11.4545H455.812V12.5966H455.881C456 12.1903 456.2 11.8835 456.482 11.6761C456.763 11.4659 457.087 11.3608 457.453 11.3608C457.544 11.3608 457.642 11.3665 457.747 11.3778C457.852 11.3892 457.945 11.4048 458.024 11.4247V13.0355C457.939 13.0099 457.821 12.9872 457.67 12.9673C457.52 12.9474 457.382 12.9375 457.257 12.9375C456.99 12.9375 456.751 12.9957 456.541 13.1122C456.334 13.2259 456.169 13.3849 456.047 13.5895C455.928 13.794 455.868 14.0298 455.868 14.2969V18H454.053ZM460.642 18.1236C460.224 18.1236 459.852 18.0511 459.525 17.9062C459.199 17.7585 458.94 17.5412 458.75 17.2543C458.562 16.9645 458.468 16.6037 458.468 16.1719C458.468 15.8082 458.535 15.5028 458.669 15.2557C458.802 15.0085 458.984 14.8097 459.214 14.6591C459.444 14.5085 459.706 14.3949 459.998 14.3182C460.294 14.2415 460.603 14.1875 460.927 14.1562C461.308 14.1165 461.615 14.0795 461.848 14.0455C462.081 14.0085 462.25 13.9545 462.355 13.8835C462.46 13.8125 462.512 13.7074 462.512 13.5682V13.5426C462.512 13.2727 462.427 13.0639 462.257 12.9162C462.089 12.7685 461.85 12.6946 461.541 12.6946C461.214 12.6946 460.954 12.767 460.761 12.9119C460.568 13.054 460.44 13.233 460.377 13.4489L458.699 13.3125C458.784 12.9148 458.951 12.571 459.201 12.2812C459.451 11.9886 459.774 11.7642 460.169 11.608C460.566 11.4489 461.027 11.3693 461.549 11.3693C461.913 11.3693 462.261 11.4119 462.593 11.4972C462.929 11.5824 463.225 11.7145 463.484 11.8935C463.745 12.0724 463.951 12.3026 464.102 12.5838C464.252 12.8622 464.328 13.196 464.328 13.5852V18H462.606V17.0923H462.555C462.45 17.2969 462.309 17.4773 462.133 17.6335C461.957 17.7869 461.745 17.9077 461.498 17.9957C461.251 18.081 460.966 18.1236 460.642 18.1236ZM461.162 16.8707C461.429 16.8707 461.664 16.8182 461.869 16.7131C462.074 16.6051 462.234 16.4602 462.35 16.2784C462.467 16.0966 462.525 15.8906 462.525 15.6605V14.9659C462.468 15.0028 462.39 15.0369 462.291 15.0682C462.194 15.0966 462.085 15.1236 461.963 15.1491C461.841 15.1719 461.718 15.1932 461.596 15.2131C461.474 15.2301 461.363 15.2457 461.264 15.2599C461.051 15.2912 460.865 15.3409 460.706 15.4091C460.547 15.4773 460.423 15.5696 460.335 15.6861C460.247 15.7997 460.203 15.9418 460.203 16.1122C460.203 16.3594 460.292 16.5483 460.471 16.679C460.653 16.8068 460.883 16.8707 461.162 16.8707ZM468.513 18V11.4545H470.244V12.6094H470.32C470.457 12.2259 470.684 11.9233 471.002 11.7017C471.32 11.4801 471.701 11.3693 472.144 11.3693C472.593 11.3693 472.975 11.4815 473.29 11.706C473.606 11.9276 473.816 12.2287 473.921 12.6094H473.989C474.123 12.2344 474.364 11.9347 474.714 11.7102C475.066 11.483 475.482 11.3693 475.962 11.3693C476.573 11.3693 477.069 11.5639 477.45 11.9531C477.833 12.3395 478.025 12.8878 478.025 13.598V18H476.214V13.956C476.214 13.5923 476.117 13.3196 475.924 13.1378C475.731 12.956 475.489 12.8651 475.2 12.8651C474.87 12.8651 474.613 12.9702 474.428 13.1804C474.244 13.3878 474.151 13.6619 474.151 14.0028V18H472.391V13.9176C472.391 13.5966 472.299 13.3409 472.114 13.1506C471.933 12.9602 471.692 12.8651 471.394 12.8651C471.192 12.8651 471.011 12.9162 470.849 13.0185C470.69 13.1179 470.563 13.2585 470.469 13.4403C470.376 13.6193 470.329 13.8295 470.329 14.071V18H468.513ZM481.325 18.1236C480.908 18.1236 480.536 18.0511 480.209 17.9062C479.882 17.7585 479.624 17.5412 479.433 17.2543C479.246 16.9645 479.152 16.6037 479.152 16.1719C479.152 15.8082 479.219 15.5028 479.352 15.2557C479.486 15.0085 479.668 14.8097 479.898 14.6591C480.128 14.5085 480.389 14.3949 480.682 14.3182C480.977 14.2415 481.287 14.1875 481.611 14.1562C481.991 14.1165 482.298 14.0795 482.531 14.0455C482.764 14.0085 482.933 13.9545 483.038 13.8835C483.143 13.8125 483.196 13.7074 483.196 13.5682V13.5426C483.196 13.2727 483.111 13.0639 482.94 12.9162C482.773 12.7685 482.534 12.6946 482.224 12.6946C481.898 12.6946 481.638 12.767 481.445 12.9119C481.251 13.054 481.124 13.233 481.061 13.4489L479.382 13.3125C479.467 12.9148 479.635 12.571 479.885 12.2812C480.135 11.9886 480.457 11.7642 480.852 11.608C481.25 11.4489 481.71 11.3693 482.233 11.3693C482.597 11.3693 482.945 11.4119 483.277 11.4972C483.612 11.5824 483.909 11.7145 484.168 11.8935C484.429 12.0724 484.635 12.3026 484.786 12.5838C484.936 12.8622 485.011 13.196 485.011 13.5852V18H483.29V17.0923H483.239C483.134 17.2969 482.993 17.4773 482.817 17.6335C482.641 17.7869 482.429 17.9077 482.182 17.9957C481.935 18.081 481.649 18.1236 481.325 18.1236ZM481.845 16.8707C482.112 16.8707 482.348 16.8182 482.553 16.7131C482.757 16.6051 482.918 16.4602 483.034 16.2784C483.151 16.0966 483.209 15.8906 483.209 15.6605V14.9659C483.152 15.0028 483.074 15.0369 482.974 15.0682C482.878 15.0966 482.768 15.1236 482.646 15.1491C482.524 15.1719 482.402 15.1932 482.28 15.2131C482.158 15.2301 482.047 15.2457 481.947 15.2599C481.734 15.2912 481.548 15.3409 481.389 15.4091C481.23 15.4773 481.107 15.5696 481.018 15.6861C480.93 15.7997 480.886 15.9418 480.886 16.1122C480.886 16.3594 480.976 16.5483 481.155 16.679C481.337 16.8068 481.567 16.8707 481.845 16.8707ZM486.42 18V11.4545H488.235V18H486.42ZM487.332 10.6108C487.062 10.6108 486.83 10.5213 486.637 10.3423C486.447 10.1605 486.352 9.94318 486.352 9.69034C486.352 9.44034 486.447 9.22585 486.637 9.04688C486.83 8.86506 487.062 8.77415 487.332 8.77415C487.602 8.77415 487.832 8.86506 488.022 9.04688C488.215 9.22585 488.312 9.44034 488.312 9.69034C488.312 9.94318 488.215 10.1605 488.022 10.3423C487.832 10.5213 487.602 10.6108 487.332 10.6108ZM493.887 15.2131V11.4545H495.702V18H493.959V16.8111H493.891C493.743 17.1946 493.498 17.5028 493.154 17.7358C492.813 17.9687 492.397 18.0852 491.905 18.0852C491.468 18.0852 491.083 17.9858 490.75 17.7869C490.418 17.5881 490.158 17.3054 489.971 16.9389C489.786 16.5724 489.692 16.1335 489.689 15.6222V11.4545H491.505V15.2983C491.507 15.6847 491.611 15.9901 491.816 16.2145C492.02 16.4389 492.294 16.5511 492.638 16.5511C492.857 16.5511 493.061 16.5014 493.252 16.402C493.442 16.2997 493.596 16.1491 493.712 15.9503C493.831 15.7514 493.89 15.5057 493.887 15.2131ZM492.05 10.6108L492.953 8.67188H494.632L493.333 10.6108H492.05ZM502.6 13.321L500.938 13.4233C500.91 13.2812 500.849 13.1534 500.755 13.0398C500.661 12.9233 500.538 12.831 500.384 12.7628C500.234 12.6918 500.053 12.6562 499.843 12.6562C499.562 12.6562 499.325 12.7159 499.131 12.8352C498.938 12.9517 498.842 13.108 498.842 13.304C498.842 13.4602 498.904 13.5923 499.029 13.7003C499.154 13.8082 499.369 13.8949 499.673 13.9602L500.857 14.1989C501.494 14.3295 501.968 14.5398 502.281 14.8295C502.593 15.1193 502.749 15.5 502.749 15.9716C502.749 16.4006 502.623 16.777 502.37 17.1009C502.12 17.4247 501.776 17.6776 501.339 17.8594C500.904 18.0384 500.403 18.1278 499.835 18.1278C498.968 18.1278 498.278 17.9474 497.763 17.5866C497.252 17.223 496.952 16.7287 496.864 16.1037L498.65 16.0099C498.704 16.2741 498.835 16.4759 499.042 16.6151C499.249 16.7514 499.515 16.8196 499.839 16.8196C500.157 16.8196 500.413 16.7585 500.606 16.6364C500.802 16.5114 500.901 16.3509 500.904 16.1548C500.901 15.9901 500.832 15.8551 500.695 15.75C500.559 15.642 500.349 15.5597 500.065 15.5028L498.931 15.277C498.292 15.1491 497.816 14.9276 497.504 14.6122C497.194 14.2969 497.039 13.8949 497.039 13.4062C497.039 12.9858 497.153 12.6236 497.38 12.3196C497.61 12.0156 497.933 11.7812 498.347 11.6165C498.765 11.4517 499.254 11.3693 499.813 11.3693C500.64 11.3693 501.29 11.544 501.765 11.8935C502.242 12.2429 502.521 12.7187 502.6 13.321ZM506.85 18.1278C506.179 18.1278 505.603 17.9858 505.12 17.7017C504.64 17.4148 504.27 17.017 504.012 16.5085C503.756 16 503.628 15.4148 503.628 14.7528C503.628 14.0824 503.757 13.4943 504.016 12.9886C504.277 12.4801 504.648 12.0838 505.128 11.7997C505.608 11.5128 506.179 11.3693 506.841 11.3693C507.412 11.3693 507.912 11.473 508.341 11.6804C508.77 11.8878 509.11 12.179 509.36 12.554C509.61 12.929 509.748 13.3693 509.773 13.875H508.06C508.012 13.5483 507.884 13.2855 507.676 13.0866C507.472 12.8849 507.203 12.7841 506.871 12.7841C506.59 12.7841 506.344 12.8608 506.134 13.0142C505.926 13.1648 505.765 13.3849 505.648 13.6747C505.532 13.9645 505.473 14.3153 505.473 14.7273C505.473 15.1449 505.53 15.5 505.644 15.7926C505.76 16.0852 505.924 16.3082 506.134 16.4616C506.344 16.6151 506.59 16.6918 506.871 16.6918C507.078 16.6918 507.265 16.6491 507.429 16.5639C507.597 16.4787 507.735 16.3551 507.843 16.1932C507.953 16.0284 508.026 15.831 508.06 15.6009H509.773C509.745 16.1009 509.608 16.5412 509.364 16.9219C509.123 17.2997 508.789 17.5952 508.363 17.8082C507.936 18.0213 507.432 18.1278 506.85 18.1278ZM515.133 15.2131V11.4545H516.948V18H515.205V16.8111H515.137C514.989 17.1946 514.744 17.5028 514.4 17.7358C514.059 17.9687 513.643 18.0852 513.151 18.0852C512.714 18.0852 512.329 17.9858 511.996 17.7869C511.664 17.5881 511.404 17.3054 511.217 16.9389C511.032 16.5724 510.938 16.1335 510.935 15.6222V11.4545H512.751V15.2983C512.754 15.6847 512.857 15.9901 513.062 16.2145C513.266 16.4389 513.54 16.5511 513.884 16.5511C514.103 16.5511 514.308 16.5014 514.498 16.402C514.688 16.2997 514.842 16.1491 514.958 15.9503C515.077 15.7514 515.136 15.5057 515.133 15.2131ZM520.216 9.27273V18H518.4V9.27273H520.216ZM523.536 18.1236C523.119 18.1236 522.746 18.0511 522.42 17.9062C522.093 17.7585 521.835 17.5412 521.644 17.2543C521.457 16.9645 521.363 16.6037 521.363 16.1719C521.363 15.8082 521.43 15.5028 521.563 15.2557C521.697 15.0085 521.879 14.8097 522.109 14.6591C522.339 14.5085 522.6 14.3949 522.893 14.3182C523.188 14.2415 523.498 14.1875 523.822 14.1562C524.202 14.1165 524.509 14.0795 524.742 14.0455C524.975 14.0085 525.144 13.9545 525.249 13.8835C525.354 13.8125 525.407 13.7074 525.407 13.5682V13.5426C525.407 13.2727 525.322 13.0639 525.151 12.9162C524.984 12.7685 524.745 12.6946 524.435 12.6946C524.109 12.6946 523.849 12.767 523.656 12.9119C523.462 13.054 523.335 13.233 523.272 13.4489L521.593 13.3125C521.678 12.9148 521.846 12.571 522.096 12.2812C522.346 11.9886 522.668 11.7642 523.063 11.608C523.461 11.4489 523.921 11.3693 524.444 11.3693C524.808 11.3693 525.156 11.4119 525.488 11.4972C525.823 11.5824 526.12 11.7145 526.379 11.8935C526.64 12.0724 526.846 12.3026 526.996 12.5838C527.147 12.8622 527.222 13.196 527.222 13.5852V18H525.501V17.0923H525.45C525.344 17.2969 525.204 17.4773 525.028 17.6335C524.852 17.7869 524.64 17.9077 524.393 17.9957C524.146 18.081 523.86 18.1236 523.536 18.1236ZM524.056 16.8707C524.323 16.8707 524.559 16.8182 524.763 16.7131C524.968 16.6051 525.129 16.4602 525.245 16.2784C525.362 16.0966 525.42 15.8906 525.42 15.6605V14.9659C525.363 15.0028 525.285 15.0369 525.185 15.0682C525.089 15.0966 524.979 15.1236 524.857 15.1491C524.735 15.1719 524.613 15.1932 524.491 15.2131C524.369 15.2301 524.258 15.2457 524.158 15.2599C523.945 15.2912 523.759 15.3409 523.6 15.4091C523.441 15.4773 523.317 15.5696 523.229 15.6861C523.141 15.7997 523.097 15.9418 523.097 16.1122C523.097 16.3594 523.187 16.5483 523.366 16.679C523.548 16.8068 523.778 16.8707 524.056 16.8707ZM534.391 18.1278C533.718 18.1278 533.138 17.9915 532.652 17.7188C532.169 17.4432 531.797 17.054 531.536 16.5511C531.275 16.0455 531.144 15.4474 531.144 14.7571C531.144 14.0838 531.275 13.4929 531.536 12.9844C531.797 12.4759 532.165 12.0795 532.64 11.7955C533.117 11.5114 533.676 11.3693 534.319 11.3693C534.75 11.3693 535.152 11.4389 535.525 11.5781C535.9 11.7145 536.226 11.9205 536.505 12.196C536.786 12.4716 537.005 12.8182 537.161 13.2358C537.317 13.6506 537.395 14.1364 537.395 14.6932V15.1918H531.868V14.0668H535.686C535.686 13.8054 535.63 13.5739 535.516 13.3722C535.402 13.1705 535.245 13.0128 535.043 12.8991C534.844 12.7827 534.613 12.7244 534.348 12.7244C534.073 12.7244 533.828 12.7884 533.615 12.9162C533.405 13.0412 533.24 13.2102 533.121 13.4233C533.002 13.6335 532.941 13.8679 532.938 14.1264V15.196C532.938 15.5199 532.998 15.7997 533.117 16.0355C533.239 16.2713 533.411 16.4531 533.632 16.581C533.854 16.7088 534.117 16.7727 534.421 16.7727C534.623 16.7727 534.807 16.7443 534.975 16.6875C535.142 16.6307 535.286 16.5455 535.405 16.4318C535.525 16.3182 535.615 16.179 535.678 16.0142L537.357 16.125C537.272 16.5284 537.097 16.8807 536.833 17.1818C536.571 17.4801 536.233 17.7131 535.819 17.8807C535.407 18.0455 534.931 18.1278 534.391 18.1278ZM545.555 15.2131V11.4545H547.37V18H545.627V16.8111H545.559C545.411 17.1946 545.165 17.5028 544.822 17.7358C544.481 17.9687 544.065 18.0852 543.573 18.0852C543.136 18.0852 542.751 17.9858 542.418 17.7869C542.086 17.5881 541.826 17.3054 541.638 16.9389C541.454 16.5724 541.36 16.1335 541.357 15.6222V11.4545H543.173V15.2983C543.175 15.6847 543.279 15.9901 543.484 16.2145C543.688 16.4389 543.962 16.5511 544.306 16.5511C544.525 16.5511 544.729 16.5014 544.92 16.402C545.11 16.2997 545.263 16.1491 545.38 15.9503C545.499 15.7514 545.558 15.5057 545.555 15.2131ZM548.822 18V11.4545H550.552V12.6094H550.629C550.765 12.2259 550.993 11.9233 551.311 11.7017C551.629 11.4801 552.01 11.3693 552.453 11.3693C552.902 11.3693 553.284 11.4815 553.599 11.706C553.914 11.9276 554.125 12.2287 554.23 12.6094H554.298C554.431 12.2344 554.673 11.9347 555.022 11.7102C555.375 11.483 555.791 11.3693 556.271 11.3693C556.882 11.3693 557.377 11.5639 557.758 11.9531C558.142 12.3395 558.333 12.8878 558.333 13.598V18H556.522V13.956C556.522 13.5923 556.426 13.3196 556.233 13.1378C556.039 12.956 555.798 12.8651 555.508 12.8651C555.179 12.8651 554.922 12.9702 554.737 13.1804C554.552 13.3878 554.46 13.6619 554.46 14.0028V18H552.7V13.9176C552.7 13.5966 552.608 13.3409 552.423 13.1506C552.241 12.9602 552.001 12.8651 551.703 12.8651C551.501 12.8651 551.319 12.9162 551.157 13.0185C550.998 13.1179 550.872 13.2585 550.778 13.4403C550.684 13.6193 550.637 13.8295 550.637 14.071V18H548.822ZM565.502 18.1278C564.832 18.1278 564.255 17.9858 563.772 17.7017C563.292 17.4148 562.923 17.017 562.664 16.5085C562.408 16 562.281 15.4148 562.281 14.7528C562.281 14.0824 562.41 13.4943 562.668 12.9886C562.93 12.4801 563.3 12.0838 563.781 11.7997C564.261 11.5128 564.832 11.3693 565.494 11.3693C566.065 11.3693 566.565 11.473 566.994 11.6804C567.423 11.8878 567.762 12.179 568.012 12.554C568.262 12.929 568.4 13.3693 568.425 13.875H566.712C566.664 13.5483 566.536 13.2855 566.329 13.0866C566.124 12.8849 565.856 12.7841 565.523 12.7841C565.242 12.7841 564.996 12.8608 564.786 13.0142C564.579 13.1648 564.417 13.3849 564.3 13.6747C564.184 13.9645 564.126 14.3153 564.126 14.7273C564.126 15.1449 564.183 15.5 564.296 15.7926C564.413 16.0852 564.576 16.3082 564.786 16.4616C564.996 16.6151 565.242 16.6918 565.523 16.6918C565.731 16.6918 565.917 16.6491 566.082 16.5639C566.249 16.4787 566.387 16.3551 566.495 16.1932C566.606 16.0284 566.678 15.831 566.712 15.6009H568.425C568.397 16.1009 568.261 16.5412 568.016 16.9219C567.775 17.2997 567.441 17.5952 567.015 17.8082C566.589 18.0213 566.085 18.1278 565.502 18.1278ZM571.454 18.1236C571.037 18.1236 570.664 18.0511 570.338 17.9062C570.011 17.7585 569.752 17.5412 569.562 17.2543C569.375 16.9645 569.281 16.6037 569.281 16.1719C569.281 15.8082 569.348 15.5028 569.481 15.2557C569.615 15.0085 569.797 14.8097 570.027 14.6591C570.257 14.5085 570.518 14.3949 570.811 14.3182C571.106 14.2415 571.416 14.1875 571.74 14.1562C572.12 14.1165 572.427 14.0795 572.66 14.0455C572.893 14.0085 573.062 13.9545 573.167 13.8835C573.272 13.8125 573.325 13.7074 573.325 13.5682V13.5426C573.325 13.2727 573.24 13.0639 573.069 12.9162C572.902 12.7685 572.663 12.6946 572.353 12.6946C572.027 12.6946 571.767 12.767 571.574 12.9119C571.38 13.054 571.252 13.233 571.19 13.4489L569.511 13.3125C569.596 12.9148 569.764 12.571 570.014 12.2812C570.264 11.9886 570.586 11.7642 570.981 11.608C571.379 11.4489 571.839 11.3693 572.362 11.3693C572.725 11.3693 573.074 11.4119 573.406 11.4972C573.741 11.5824 574.038 11.7145 574.297 11.8935C574.558 12.0724 574.764 12.3026 574.914 12.5838C575.065 12.8622 575.14 13.196 575.14 13.5852V18H573.419V17.0923H573.368C573.262 17.2969 573.122 17.4773 572.946 17.6335C572.77 17.7869 572.558 17.9077 572.311 17.9957C572.064 18.081 571.778 18.1236 571.454 18.1236ZM571.974 16.8707C572.241 16.8707 572.477 16.8182 572.681 16.7131C572.886 16.6051 573.047 16.4602 573.163 16.2784C573.279 16.0966 573.338 15.8906 573.338 15.6605V14.9659C573.281 15.0028 573.203 15.0369 573.103 15.0682C573.007 15.0966 572.897 15.1236 572.775 15.1491C572.653 15.1719 572.531 15.1932 572.409 15.2131C572.287 15.2301 572.176 15.2457 572.076 15.2599C571.863 15.2912 571.677 15.3409 571.518 15.4091C571.359 15.4773 571.235 15.5696 571.147 15.6861C571.059 15.7997 571.015 15.9418 571.015 16.1122C571.015 16.3594 571.105 16.5483 571.284 16.679C571.466 16.8068 571.696 16.8707 571.974 16.8707ZM576.549 18V11.4545H578.309V12.5966H578.377C578.496 12.1903 578.696 11.8835 578.978 11.6761C579.259 11.4659 579.583 11.3608 579.949 11.3608C580.04 11.3608 580.138 11.3665 580.243 11.3778C580.348 11.3892 580.441 11.4048 580.52 11.4247V13.0355C580.435 13.0099 580.317 12.9872 580.167 12.9673C580.016 12.9474 579.878 12.9375 579.753 12.9375C579.486 12.9375 579.248 12.9957 579.037 13.1122C578.83 13.2259 578.665 13.3849 578.543 13.5895C578.424 13.794 578.364 14.0298 578.364 14.2969V18H576.549ZM583.138 18.1236C582.72 18.1236 582.348 18.0511 582.021 17.9062C581.695 17.7585 581.436 17.5412 581.246 17.2543C581.058 16.9645 580.964 16.6037 580.964 16.1719C580.964 15.8082 581.031 15.5028 581.165 15.2557C581.298 15.0085 581.48 14.8097 581.71 14.6591C581.94 14.5085 582.202 14.3949 582.494 14.3182C582.79 14.2415 583.099 14.1875 583.423 14.1562C583.804 14.1165 584.111 14.0795 584.344 14.0455C584.577 14.0085 584.746 13.9545 584.851 13.8835C584.956 13.8125 585.009 13.7074 585.009 13.5682V13.5426C585.009 13.2727 584.923 13.0639 584.753 12.9162C584.585 12.7685 584.347 12.6946 584.037 12.6946C583.71 12.6946 583.45 12.767 583.257 12.9119C583.064 13.054 582.936 13.233 582.874 13.4489L581.195 13.3125C581.28 12.9148 581.447 12.571 581.697 12.2812C581.947 11.9886 582.27 11.7642 582.665 11.608C583.063 11.4489 583.523 11.3693 584.045 11.3693C584.409 11.3693 584.757 11.4119 585.089 11.4972C585.425 11.5824 585.722 11.7145 585.98 11.8935C586.241 12.0724 586.447 12.3026 586.598 12.5838C586.749 12.8622 586.824 13.196 586.824 13.5852V18H585.102V17.0923H585.051C584.946 17.2969 584.805 17.4773 584.629 17.6335C584.453 17.7869 584.241 17.9077 583.994 17.9957C583.747 18.081 583.462 18.1236 583.138 18.1236ZM583.658 16.8707C583.925 16.8707 584.161 16.8182 584.365 16.7131C584.57 16.6051 584.73 16.4602 584.847 16.2784C584.963 16.0966 585.021 15.8906 585.021 15.6605V14.9659C584.964 15.0028 584.886 15.0369 584.787 15.0682C584.69 15.0966 584.581 15.1236 584.459 15.1491C584.337 15.1719 584.214 15.1932 584.092 15.2131C583.97 15.2301 583.859 15.2457 583.76 15.2599C583.547 15.2912 583.361 15.3409 583.202 15.4091C583.043 15.4773 582.919 15.5696 582.831 15.6861C582.743 15.7997 582.699 15.9418 582.699 16.1122C582.699 16.3594 582.788 16.5483 582.967 16.679C583.149 16.8068 583.379 16.8707 583.658 16.8707ZM591.19 18.1278C590.519 18.1278 589.942 17.9858 589.46 17.7017C588.979 17.4148 588.61 17.017 588.352 16.5085C588.096 16 587.968 15.4148 587.968 14.7528C587.968 14.0824 588.097 13.4943 588.356 12.9886C588.617 12.4801 588.988 12.0838 589.468 11.7997C589.948 11.5128 590.519 11.3693 591.181 11.3693C591.752 11.3693 592.252 11.473 592.681 11.6804C593.11 11.8878 593.45 12.179 593.7 12.554C593.95 12.929 594.087 13.3693 594.113 13.875H592.4C592.352 13.5483 592.224 13.2855 592.016 13.0866C591.812 12.8849 591.543 12.7841 591.211 12.7841C590.93 12.7841 590.684 12.8608 590.474 13.0142C590.266 13.1648 590.104 13.3849 589.988 13.6747C589.871 13.9645 589.813 14.3153 589.813 14.7273C589.813 15.1449 589.87 15.5 589.984 15.7926C590.1 16.0852 590.263 16.3082 590.474 16.4616C590.684 16.6151 590.93 16.6918 591.211 16.6918C591.418 16.6918 591.604 16.6491 591.769 16.5639C591.937 16.4787 592.075 16.3551 592.183 16.1932C592.293 16.0284 592.366 15.831 592.4 15.6009H594.113C594.085 16.1009 593.948 16.5412 593.704 16.9219C593.462 17.2997 593.129 17.5952 592.702 17.8082C592.276 18.0213 591.772 18.1278 591.19 18.1278ZM598.757 11.4545V12.8182H594.815V11.4545H598.757ZM595.71 9.88636H597.525V15.9886C597.525 16.1562 597.551 16.2869 597.602 16.3807C597.653 16.4716 597.724 16.5355 597.815 16.5724C597.909 16.6094 598.017 16.6278 598.139 16.6278C598.224 16.6278 598.309 16.6207 598.395 16.6065C598.48 16.5895 598.545 16.5767 598.591 16.5682L598.876 17.919C598.785 17.9474 598.657 17.9801 598.493 18.017C598.328 18.0568 598.127 18.081 597.892 18.0895C597.454 18.1065 597.071 18.0483 596.741 17.9148C596.414 17.7812 596.16 17.5739 595.978 17.2926C595.797 17.0114 595.707 16.6562 595.71 16.2273V9.88636ZM602.852 18.1278C602.179 18.1278 601.599 17.9915 601.113 17.7188C600.63 17.4432 600.258 17.054 599.997 16.5511C599.735 16.0455 599.605 15.4474 599.605 14.7571C599.605 14.0838 599.735 13.4929 599.997 12.9844C600.258 12.4759 600.626 12.0795 601.1 11.7955C601.578 11.5114 602.137 11.3693 602.779 11.3693C603.211 11.3693 603.613 11.4389 603.985 11.5781C604.36 11.7145 604.687 11.9205 604.966 12.196C605.247 12.4716 605.466 12.8182 605.622 13.2358C605.778 13.6506 605.856 14.1364 605.856 14.6932V15.1918H600.329V14.0668H604.147C604.147 13.8054 604.091 13.5739 603.977 13.3722C603.863 13.1705 603.706 13.0128 603.504 12.8991C603.305 12.7827 603.074 12.7244 602.809 12.7244C602.534 12.7244 602.289 12.7884 602.076 12.9162C601.866 13.0412 601.701 13.2102 601.582 13.4233C601.463 13.6335 601.402 13.8679 601.399 14.1264V15.196C601.399 15.5199 601.458 15.7997 601.578 16.0355C601.7 16.2713 601.872 16.4531 602.093 16.581C602.315 16.7088 602.578 16.7727 602.882 16.7727C603.083 16.7727 603.268 16.7443 603.436 16.6875C603.603 16.6307 603.747 16.5455 603.866 16.4318C603.985 16.3182 604.076 16.179 604.139 16.0142L605.818 16.125C605.733 16.5284 605.558 16.8807 605.294 17.1818C605.032 17.4801 604.694 17.7131 604.279 17.8807C603.868 18.0455 603.392 18.1278 602.852 18.1278ZM607.041 18V11.4545H608.801V12.5966H608.869C608.988 12.1903 609.189 11.8835 609.47 11.6761C609.751 11.4659 610.075 11.3608 610.441 11.3608C610.532 11.3608 610.63 11.3665 610.735 11.3778C610.841 11.3892 610.933 11.4048 611.012 11.4247V13.0355C610.927 13.0099 610.809 12.9872 610.659 12.9673C610.508 12.9474 610.37 12.9375 610.245 12.9375C609.978 12.9375 609.74 12.9957 609.529 13.1122C609.322 13.2259 609.157 13.3849 609.035 13.5895C608.916 13.794 608.856 14.0298 608.856 14.2969V18H607.041ZM614.629 18.1278C613.956 18.1278 613.376 17.9915 612.891 17.7188C612.408 17.4432 612.036 17.054 611.774 16.5511C611.513 16.0455 611.382 15.4474 611.382 14.7571C611.382 14.0838 611.513 13.4929 611.774 12.9844C612.036 12.4759 612.403 12.0795 612.878 11.7955C613.355 11.5114 613.915 11.3693 614.557 11.3693C614.989 11.3693 615.391 11.4389 615.763 11.5781C616.138 11.7145 616.464 11.9205 616.743 12.196C617.024 12.4716 617.243 12.8182 617.399 13.2358C617.555 13.6506 617.634 14.1364 617.634 14.6932V15.1918H612.107V14.0668H615.925C615.925 13.8054 615.868 13.5739 615.754 13.3722C615.641 13.1705 615.483 13.0128 615.281 12.8991C615.082 12.7827 614.851 12.7244 614.587 12.7244C614.311 12.7244 614.067 12.7884 613.854 12.9162C613.643 13.0412 613.479 13.2102 613.359 13.4233C613.24 13.6335 613.179 13.8679 613.176 14.1264V15.196C613.176 15.5199 613.236 15.7997 613.355 16.0355C613.477 16.2713 613.649 16.4531 613.871 16.581C614.092 16.7088 614.355 16.7727 614.659 16.7727C614.861 16.7727 615.045 16.7443 615.213 16.6875C615.381 16.6307 615.524 16.5455 615.643 16.4318C615.763 16.3182 615.854 16.179 615.916 16.0142L617.595 16.125C617.51 16.5284 617.335 16.8807 617.071 17.1818C616.81 17.4801 616.472 17.7131 616.057 17.8807C615.645 18.0455 615.169 18.1278 614.629 18.1278ZM624.578 18.1278C623.905 18.1278 623.326 17.9915 622.84 17.7188C622.357 17.4432 621.985 17.054 621.723 16.5511C621.462 16.0455 621.331 15.4474 621.331 14.7571C621.331 14.0838 621.462 13.4929 621.723 12.9844C621.985 12.4759 622.353 12.0795 622.827 11.7955C623.304 11.5114 623.864 11.3693 624.506 11.3693C624.938 11.3693 625.34 11.4389 625.712 11.5781C626.087 11.7145 626.414 11.9205 626.692 12.196C626.973 12.4716 627.192 12.8182 627.348 13.2358C627.505 13.6506 627.583 14.1364 627.583 14.6932V15.1918H622.056V14.0668H625.874C625.874 13.8054 625.817 13.5739 625.703 13.3722C625.59 13.1705 625.432 13.0128 625.23 12.8991C625.032 12.7827 624.8 12.7244 624.536 12.7244C624.26 12.7244 624.016 12.7884 623.803 12.9162C623.593 13.0412 623.428 13.2102 623.309 13.4233C623.189 13.6335 623.128 13.8679 623.125 14.1264V15.196C623.125 15.5199 623.185 15.7997 623.304 16.0355C623.426 16.2713 623.598 16.4531 623.82 16.581C624.042 16.7088 624.304 16.7727 624.608 16.7727C624.81 16.7727 624.995 16.7443 625.162 16.6875C625.33 16.6307 625.473 16.5455 625.593 16.4318C625.712 16.3182 625.803 16.179 625.865 16.0142L627.544 16.125C627.459 16.5284 627.284 16.8807 627.02 17.1818C626.759 17.4801 626.421 17.7131 626.006 17.8807C625.594 18.0455 625.118 18.1278 624.578 18.1278ZM634.213 13.321L632.551 13.4233C632.523 13.2812 632.462 13.1534 632.368 13.0398C632.275 12.9233 632.151 12.831 631.998 12.7628C631.847 12.6918 631.667 12.6562 631.456 12.6562C631.175 12.6562 630.938 12.7159 630.745 12.8352C630.551 12.9517 630.455 13.108 630.455 13.304C630.455 13.4602 630.517 13.5923 630.642 13.7003C630.767 13.8082 630.982 13.8949 631.286 13.9602L632.471 14.1989C633.107 14.3295 633.581 14.5398 633.894 14.8295C634.206 15.1193 634.363 15.5 634.363 15.9716C634.363 16.4006 634.236 16.777 633.983 17.1009C633.733 17.4247 633.39 17.6776 632.952 17.8594C632.517 18.0384 632.016 18.1278 631.448 18.1278C630.581 18.1278 629.891 17.9474 629.377 17.5866C628.865 17.223 628.566 16.7287 628.478 16.1037L630.263 16.0099C630.317 16.2741 630.448 16.4759 630.655 16.6151C630.863 16.7514 631.128 16.8196 631.452 16.8196C631.77 16.8196 632.026 16.7585 632.219 16.6364C632.415 16.5114 632.515 16.3509 632.517 16.1548C632.515 15.9901 632.445 15.8551 632.309 15.75C632.172 15.642 631.962 15.5597 631.678 15.5028L630.544 15.277C629.905 15.1491 629.429 14.9276 629.117 14.6122C628.807 14.2969 628.652 13.8949 628.652 13.4062C628.652 12.9858 628.766 12.6236 628.993 12.3196C629.223 12.0156 629.546 11.7812 629.961 11.6165C630.378 11.4517 630.867 11.3693 631.426 11.3693C632.253 11.3693 632.904 11.544 633.378 11.8935C633.855 12.2429 634.134 12.7187 634.213 13.321ZM635.506 20.4545V11.4545H637.295V12.554H637.376C637.456 12.3778 637.571 12.1989 637.722 12.017C637.875 11.8324 638.074 11.679 638.318 11.5568C638.565 11.4318 638.872 11.3693 639.239 11.3693C639.716 11.3693 640.156 11.4943 640.56 11.7443C640.963 11.9915 641.286 12.3651 641.527 12.8651C641.768 13.3622 641.889 13.9858 641.889 14.7358C641.889 15.4659 641.771 16.0824 641.536 16.5852C641.303 17.0852 640.984 17.4645 640.581 17.723C640.18 17.9787 639.732 18.1065 639.234 18.1065C638.882 18.1065 638.582 18.0483 638.335 17.9318C638.091 17.8153 637.891 17.669 637.734 17.4929C637.578 17.3139 637.459 17.1335 637.376 16.9517H637.321V20.4545H635.506ZM637.283 14.7273C637.283 15.1165 637.337 15.456 637.445 15.7457C637.553 16.0355 637.709 16.2614 637.913 16.4233C638.118 16.5824 638.366 16.6619 638.659 16.6619C638.955 16.6619 639.205 16.581 639.409 16.419C639.614 16.2543 639.768 16.027 639.874 15.7372C639.982 15.4446 640.036 15.108 640.036 14.7273C640.036 14.3494 639.983 14.017 639.878 13.7301C639.773 13.4432 639.618 13.2187 639.413 13.0568C639.209 12.8949 638.957 12.8139 638.659 12.8139C638.364 12.8139 638.114 12.892 637.909 13.0483C637.707 13.2045 637.553 13.4261 637.445 13.7131C637.337 14 637.283 14.3381 637.283 14.7273ZM646.082 18.1278C645.409 18.1278 644.83 17.9915 644.344 17.7188C643.861 17.4432 643.489 17.054 643.227 16.5511C642.966 16.0455 642.835 15.4474 642.835 14.7571C642.835 14.0838 642.966 13.4929 643.227 12.9844C643.489 12.4759 643.857 12.0795 644.331 11.7955C644.808 11.5114 645.368 11.3693 646.01 11.3693C646.442 11.3693 646.844 11.4389 647.216 11.5781C647.591 11.7145 647.918 11.9205 648.196 12.196C648.477 12.4716 648.696 12.8182 648.852 13.2358C649.009 13.6506 649.087 14.1364 649.087 14.6932V15.1918H643.56V14.0668H647.378C647.378 13.8054 647.321 13.5739 647.207 13.3722C647.094 13.1705 646.936 13.0128 646.734 12.8991C646.536 12.7827 646.304 12.7244 646.04 12.7244C645.764 12.7244 645.52 12.7884 645.307 12.9162C645.097 13.0412 644.932 13.2102 644.812 13.4233C644.693 13.6335 644.632 13.8679 644.629 14.1264V15.196C644.629 15.5199 644.689 15.7997 644.808 16.0355C644.93 16.2713 645.102 16.4531 645.324 16.581C645.545 16.7088 645.808 16.7727 646.112 16.7727C646.314 16.7727 646.499 16.7443 646.666 16.6875C646.834 16.6307 646.977 16.5455 647.097 16.4318C647.216 16.3182 647.307 16.179 647.369 16.0142L649.048 16.125C648.963 16.5284 648.788 16.8807 648.524 17.1818C648.263 17.4801 647.925 17.7131 647.51 17.8807C647.098 18.0455 646.622 18.1278 646.082 18.1278ZM653.229 18.1278C652.558 18.1278 651.982 17.9858 651.499 17.7017C651.018 17.4148 650.649 17.017 650.391 16.5085C650.135 16 650.007 15.4148 650.007 14.7528C650.007 14.0824 650.136 13.4943 650.395 12.9886C650.656 12.4801 651.027 12.0838 651.507 11.7997C651.987 11.5128 652.558 11.3693 653.22 11.3693C653.791 11.3693 654.291 11.473 654.72 11.6804C655.149 11.8878 655.489 12.179 655.739 12.554C655.989 12.929 656.126 13.3693 656.152 13.875H654.439C654.391 13.5483 654.263 13.2855 654.055 13.0866C653.851 12.8849 653.582 12.7841 653.25 12.7841C652.969 12.7841 652.723 12.8608 652.513 13.0142C652.305 13.1648 652.143 13.3849 652.027 13.6747C651.911 13.9645 651.852 14.3153 651.852 14.7273C651.852 15.1449 651.909 15.5 652.023 15.7926C652.139 16.0852 652.303 16.3082 652.513 16.4616C652.723 16.6151 652.969 16.6918 653.25 16.6918C653.457 16.6918 653.643 16.6491 653.808 16.5639C653.976 16.4787 654.114 16.3551 654.222 16.1932C654.332 16.0284 654.405 15.831 654.439 15.6009H656.152C656.124 16.1009 655.987 16.5412 655.743 16.9219C655.501 17.2997 655.168 17.5952 654.741 17.8082C654.315 18.0213 653.811 18.1278 653.229 18.1278ZM657.314 18V11.4545H659.13V18H657.314ZM658.226 10.6108C657.956 10.6108 657.725 10.5213 657.532 10.3423C657.341 10.1605 657.246 9.94318 657.246 9.69034C657.246 9.44034 657.341 9.22585 657.532 9.04688C657.725 8.86506 657.956 8.77415 658.226 8.77415C658.496 8.77415 658.726 8.86506 658.917 9.04688C659.11 9.22585 659.206 9.44034 659.206 9.69034C659.206 9.94318 659.11 10.1605 658.917 10.3423C658.726 10.5213 658.496 10.6108 658.226 10.6108ZM662.45 18.1236C662.033 18.1236 661.661 18.0511 661.334 17.9062C661.007 17.7585 660.749 17.5412 660.558 17.2543C660.371 16.9645 660.277 16.6037 660.277 16.1719C660.277 15.8082 660.344 15.5028 660.477 15.2557C660.611 15.0085 660.793 14.8097 661.023 14.6591C661.253 14.5085 661.514 14.3949 661.807 14.3182C662.102 14.2415 662.412 14.1875 662.736 14.1562C663.116 14.1165 663.423 14.0795 663.656 14.0455C663.889 14.0085 664.058 13.9545 664.163 13.8835C664.268 13.8125 664.321 13.7074 664.321 13.5682V13.5426C664.321 13.2727 664.236 13.0639 664.065 12.9162C663.898 12.7685 663.659 12.6946 663.349 12.6946C663.023 12.6946 662.763 12.767 662.57 12.9119C662.376 13.054 662.249 13.233 662.186 13.4489L660.507 13.3125C660.592 12.9148 660.76 12.571 661.01 12.2812C661.26 11.9886 661.582 11.7642 661.977 11.608C662.375 11.4489 662.835 11.3693 663.358 11.3693C663.722 11.3693 664.07 11.4119 664.402 11.4972C664.737 11.5824 665.034 11.7145 665.293 11.8935C665.554 12.0724 665.76 12.3026 665.911 12.5838C666.061 12.8622 666.136 13.196 666.136 13.5852V18H664.415V17.0923H664.364C664.259 17.2969 664.118 17.4773 663.942 17.6335C663.766 17.7869 663.554 17.9077 663.307 17.9957C663.06 18.081 662.774 18.1236 662.45 18.1236ZM662.97 16.8707C663.237 16.8707 663.473 16.8182 663.678 16.7131C663.882 16.6051 664.043 16.4602 664.159 16.2784C664.276 16.0966 664.334 15.8906 664.334 15.6605V14.9659C664.277 15.0028 664.199 15.0369 664.099 15.0682C664.003 15.0966 663.893 15.1236 663.771 15.1491C663.649 15.1719 663.527 15.1932 663.405 15.2131C663.283 15.2301 663.172 15.2457 663.072 15.2599C662.859 15.2912 662.673 15.3409 662.514 15.4091C662.355 15.4773 662.232 15.5696 662.143 15.6861C662.055 15.7997 662.011 15.9418 662.011 16.1122C662.011 16.3594 662.101 16.5483 662.28 16.679C662.462 16.8068 662.692 16.8707 662.97 16.8707ZM669.36 9.27273V18H667.545V9.27273H669.36Z" fill="#FF0000"/>
<path d="M11.9999 9.00003V14M11.9999 21.41H5.93993C2.46993 21.41 1.01993 18.93 2.69993 15.9L5.81993 10.28L8.75993 5.00003C10.5399 1.79003 13.4599 1.79003 15.2399 5.00003L18.1799 10.29L21.2999 15.91C22.9799 18.94 21.5199 21.42 18.0599 21.42H11.9999V21.41Z" stroke="#FF0000" stroke-width="1.5" stroke-linecap="round" stroke-linejoin="round"/>
<path d="M11.9951 17H12.0041" stroke="#FF0000" stroke-width="2" stroke-linecap="round" stroke-linejoin="round"/>
<path d="M689 9.00003V14M689 21.41H682.94C679.47 21.41 678.02 18.93 679.7 15.9L682.82 10.28L685.76 5.00003C687.54 1.79003 690.46 1.79003 692.24 5.00003L695.18 10.29L698.3 15.91C699.98 18.94 698.52 21.42 695.06 21.42H689V21.41Z" stroke="#FF0000" stroke-width="1.5" stroke-linecap="round" stroke-linejoin="round"/>
<path d="M688.995 17H689.004" stroke="#FF0000" stroke-width="2" stroke-linecap="round" stroke-linejoin="round"/>
</svg>
